<?xml version="1.0" encoding="UTF-8"?>
<svg width="30px" height="31px" viewBox="0 0 30 31" version="1.1" xmlns="http://www.w3.org/2000/svg" xmlns:xlink="http://www.w3.org/1999/xlink">
    <!-- Generator: Sketch 52.4 (67378) - http://www.bohemiancoding.com/sketch -->
    <title>ico_twitter_bright</title>
    <desc>Created with Sketch.</desc>
    <g id="Page-1" stroke="none" stroke-width="1" fill="none" fill-rule="evenodd">
        <g id="ico_twitter_bright">
            <rect id="Rectangle-5" fill="#058657" x="0" y="0.5" width="30" height="30" rx="1"></rect>
            <path d="M21.44198,11.5223229 C21.073676,12.0580379 20.613296,12.535159 20.0859516,12.9202041 C20.0943222,13.0373917 20.0943222,13.1545794 20.0943222,13.271767 C20.0943222,16.84599 17.3738948,20.9642985 12.4017907,20.9642985 C10.8699808,20.9642985 9.44698803,20.5206596 8.25,19.7505694 C8.46763419,19.775681 8.67689783,19.7840515 8.90290256,19.7840515 C10.166855,19.7840515 11.3303608,19.3571537 12.2594914,18.6289162 C11.0708739,18.6038046 10.074779,17.8253439 9.73158659,16.753914 C9.8989975,16.7790256 10.0664084,16.7957667 10.2421899,16.7957667 C10.4849357,16.7957667 10.7276815,16.7622845 10.9536863,16.7036907 C9.7148455,16.4525744 8.78571492,15.3644034 8.78571492,14.0502277 L8.78571492,14.0167456 C9.14564839,14.2176387 9.56417567,14.3431968 10.0078146,14.3599379 C9.27957712,13.8744463 8.80245602,13.0457623 8.80245602,12.1082611 C8.80245602,11.6060284 8.93638475,11.1456484 9.17076003,10.7438622 C10.5016768,12.3844892 12.5022372,13.455919 14.7455435,13.5731066 C14.7036907,13.3722135 14.6785791,13.1629499 14.6785791,12.9536863 C14.6785791,11.4637291 15.8839377,10.25 17.3822654,10.25 C18.1607261,10.25 18.8638519,10.5764513 19.3577141,11.1037957 C19.968764,10.986608 20.5547022,10.7606033 21.073676,10.4508931 C20.8727829,11.078684 20.4458851,11.6060284 19.8850585,11.9408502 C20.429144,11.8822564 20.9564884,11.7315866 21.44198,11.5223229 Z" id="twitter---FontAwesome" fill="#FFFFFF"></path>
        </g>
    </g>
</svg>