<?xml version="1.0" encoding="UTF-8"?>
<svg width="100px" height="99px" viewBox="0 0 100 99" version="1.1" xmlns="http://www.w3.org/2000/svg" xmlns:xlink="http://www.w3.org/1999/xlink">
    <!-- Generator: Sketch 52.4 (67378) - http://www.bohemiancoding.com/sketch -->
    <title>Shape</title>
    <desc>Created with Sketch.</desc>
    <g id="Page-1" stroke="none" stroke-width="1" fill="none" fill-rule="evenodd">
        <g id="noun_Pickaxe_40461" transform="translate(50.000000, 49.500000) scale(-1, 1) translate(-50.000000, -49.500000) " fill="#058657" fill-rule="nonzero">
            <path d="M98.973,71.543 C97.573,67.868 85.164,35.549 79.077,29.383 C80.243,27.982 80.182,25.902 78.87,24.59 L75.509,21.226 C74.195,19.913 72.113,19.855 70.714,21.018 C70.704,21.01 70.698,21 70.691,20.994 C64.617,14.919 32.144,2.436 28.461,1.032 C27.324,0.599 26.044,1.092 25.492,2.177 C25.018,3.111 25.214,4.222 25.93,4.936 C26.046,5.053 26.176,5.158 26.317,5.249 C26.593,5.429 54.035,23.309 61.205,30.478 L1.67,87.517 C0.276,88.908 0.276,91.171 1.67,92.564 L7.533,97.928 C8.924,99.318 11.187,99.318 12.579,97.928 L69.617,38.892 C76.826,46.152 94.572,73.406 94.75,73.683 C94.844,73.826 94.932,73.939 95.049,74.054 C95.762,74.771 96.865,74.96 97.799,74.484 C98.887,73.933 99.406,72.683 98.973,71.543 Z M27.614,3.255 C27.614,3.255 63.006,16.903 68.894,22.792 L68.775,22.909 L62.886,28.797 C55.459,21.366 27.614,3.255 27.614,3.255 Z M10.897,96.245 C10.432,96.708 9.679,96.708 9.213,96.245 L3.35,90.878 C2.888,90.415 2.888,89.661 3.35,89.2 L64.57,30.479 L70.689,24.359 L72.138,22.909 C72.603,22.445 73.357,22.445 73.824,22.909 L77.187,26.273 C77.65,26.737 77.65,27.492 77.187,27.956 L75.738,29.405 L69.617,35.525 L10.897,96.245 Z M71.297,37.208 L77.188,31.321 L77.301,31.207 C83.219,37.267 96.811,72.451 96.811,72.451 C96.811,72.451 78.869,44.777 71.297,37.208 Z" id="Shape"></path>
        </g>
    </g>
</svg>