<?xml version="1.0" encoding="UTF-8"?>
<svg width="44px" height="37px" viewBox="0 0 44 37" version="1.1" xmlns="http://www.w3.org/2000/svg" xmlns:xlink="http://www.w3.org/1999/xlink">
    <!-- Generator: Sketch 52.2 (67145) - http://www.bohemiancoding.com/sketch -->
    <title>ico_chat</title>
    <desc>Created with Sketch.</desc>
    <g id="Page-1" stroke="none" stroke-width="1" fill="none" fill-rule="evenodd">
        <g id="ico_chat" transform="translate(-9.000000, -11.000000)">
            <rect id="Rectangle-2" x="0" y="0" width="60" height="60"></rect>
            <g id="chat" transform="translate(9.000000, 11.000000)">
                <path d="M20.2680031,23.8813045 L3.82874168,23.8813045 C1.79245195,23.8813045 0.1397059,22.2036747 0.1397059,20.1443321 L0.1397059,4.36197241 C0.1397059,2.30258975 1.79249165,0.625 3.82874168,0.625 L30.4213689,0.625 C32.4576992,0.625 34.1104217,2.30256574 34.1102941,4.36186013 L34.1102941,20.1442198 C34.1102941,22.2036024 32.4575084,23.8811922 30.4212583,23.8811922 L30.0030735,23.8811922 L30.0030735,29.2688421 C30.0030735,30.0177254 29.5576539,30.694246 28.8721878,30.9826081 C28.6475566,31.0770772 28.4082041,31.125 28.1673309,31.125 C27.6810195,31.125 27.2124983,30.9301872 26.8661972,30.5786807 L20.2680031,23.8813045 Z M30.4213689,1.625 L3.82874168,1.625 C2.34813816,1.625 1.1397059,2.85156767 1.1397059,4.36197241 L1.1397059,20.1443321 C1.1397059,21.6547073 2.34810935,22.8813045 3.82874168,22.8813045 L20.6865932,22.8813045 L27.5785591,29.8768683 C27.7363096,30.0369901 27.9479718,30.125 28.1673309,30.125 C28.2755522,30.125 28.3830745,30.103472 28.4844726,30.0608289 C28.7974429,29.9291685 29.0030735,29.6168486 29.0030735,29.2688421 L29.0030735,22.8811922 L30.4212583,22.8811922 C31.9018619,22.8811922 33.1102941,21.6546245 33.1102941,20.1442198 L33.1102941,4.36182915 C33.1103877,2.85151418 31.9020371,1.625 30.4213689,1.625 Z" id="Path" fill="#1C3C55" fill-rule="nonzero" transform="translate(17.125000, 15.875000) scale(-1, 1) translate(-17.125000, -15.875000) "></path>
                <path d="M40.7028929,15.25 L21.5471868,15.25 C20.2805509,15.25 19.25,16.295961 19.25,17.5817174 L19.25,28.9503663 C19.25,30.2360419 20.2804713,31.2820837 21.5471868,31.2820837 L33.539791,31.2820837 L38.3985351,36.213863 C38.5826702,36.4007659 38.8287945,36.5 39.0792214,36.5 C39.2031999,36.5 39.3282938,36.4756565 39.4473322,36.4255947 C39.8068379,36.2743578 40.0414089,35.9182636 40.0414089,35.5231066 L40.0414089,31.2820029 L40.7028132,31.2820029 C41.9694491,31.2820029 43,30.2360419 43,28.9502854 L43,17.5816365 C43.0000797,16.295961 41.9696084,15.25 40.7028929,15.25 Z" id="Path" fill="#FFFFFF"></path>
                <path d="M21.5471868,31.7820837 C20.0026701,31.7820837 18.75,30.5105535 18.75,28.9503663 L18.75,17.5817174 C18.75,16.0214999 20.0027002,14.75 21.5471868,14.75 L40.7028929,14.75 C42.2474395,14.75 43.5000967,16.0214868 43.5,17.5816365 L43.5,28.9502854 C43.5,30.5105029 42.2472998,31.7820029 40.7028132,31.7820029 L40.5414089,31.7820029 L40.5414089,35.5231066 C40.5414089,36.1186113 40.187026,36.6568618 39.6411647,36.8864948 C39.4621294,36.9617885 39.2712806,37 39.0792214,37 C38.6915843,37 38.3181735,36.8447345 38.0423542,36.5647692 L33.330496,31.7820837 L21.5471868,31.7820837 Z M40.7028929,15.75 L21.5471868,15.75 C20.5583467,15.75 19.75,16.5704779 19.75,17.5817174 L19.75,28.9503663 C19.75,29.9615861 20.5583275,30.7820837 21.5471868,30.7820837 L33.7490861,30.7820837 L38.754716,35.8629568 C38.8419848,35.9515374 38.9585366,36 39.0792214,36 C39.1386286,36 39.1976473,35.9881834 39.2534495,35.9647156 C39.4268149,35.8917842 39.5414089,35.7177344 39.5414089,35.5231066 L39.5414089,30.7820029 L40.7028132,30.7820029 C41.6916533,30.7820029 42.5,29.961525 42.5,28.9502854 L42.5,17.5816055 C42.5000627,16.5704352 41.6917774,15.75 40.7028929,15.75 Z" id="Path" fill="#058657" fill-rule="nonzero"></path>
                <path d="M32,22 C31.4480046,22 31,22.4480046 31,23 C31,23.5519954 31.4480046,24 32,24 C32.5520782,24 33,23.5519954 33,23 C33,22.4480046 32.5519954,22 32,22 Z" id="Shape" fill="#95AABF"></path>
                <path d="M27,22 C26.4480874,22 26,22.4480046 26,23 C26,23.5519954 26.4480874,24 27,24 C27.5520782,24 28,23.5519954 28,23 C28,22.4480046 27.5520782,22 27,22 Z" id="Shape" fill="#95AABF"></path>
                <path d="M37,22 C36.4480046,22 36,22.4480046 36,23 C36,23.5519954 36.4480046,24 37,24 C37.5520782,24 38,23.5519954 38,23 C38,22.4480046 37.5519954,22 37,22 Z" id="Shape" fill="#95AABF"></path>
                <path d="M9,9 L30.0809057,9" id="Path-10" stroke="#95AABF" stroke-linecap="round" stroke-linejoin="round"></path>
                <path d="M9,13 L16.8478085,13" id="Path-10" stroke="#95AABF" stroke-linecap="round" stroke-linejoin="round"></path>
            </g>
        </g>
    </g>
</svg>