<?xml version="1.0" encoding="UTF-8"?>
<svg width="15px" height="23px" viewBox="0 0 15 23" version="1.1" xmlns="http://www.w3.org/2000/svg" xmlns:xlink="http://www.w3.org/1999/xlink">
    <!-- Generator: Sketch 52.4 (67378) - http://www.bohemiancoding.com/sketch -->
    <title>ion-ios-arrow-thin-down---Ionicons</title>
    <desc>Created with Sketch.</desc>
    <g id="Page-1" stroke="none" stroke-width="1" fill="none" fill-rule="evenodd">
        <g id="ico_arrow_down" fill="#058657">
            <path d="M14.359375,16.140625 C14.4531255,16.2343755 14.5,16.3749991 14.5,16.5625 C14.5,16.7500009 14.4531255,16.8906245 14.359375,16.984375 C10.2812296,20.6875185 8.2187502,22.5624998 8.171875,22.609375 C8.0781245,22.7031255 7.9375009,22.75 7.75,22.75 C7.5624991,22.75 7.4218755,22.7031255 7.328125,22.609375 L1.140625,16.984375 C0.8593736,16.7031236 0.8593736,16.4218764 1.140625,16.140625 C1.4218764,15.8593736 1.7031236,15.8593736 1.984375,16.140625 L7.1875,20.8515625 L7.1875,0.8125 C7.1875,0.4374981 7.3749981,0.25 7.75,0.25 C8.1250019,0.25 8.3125,0.4374981 8.3125,0.8125 L8.3125,20.8515625 L13.515625,16.140625 C13.7968764,15.8593736 14.0781236,15.8593736 14.359375,16.140625 Z" id="ion-ios-arrow-thin-down---Ionicons"></path>
        </g>
    </g>
</svg>