<?xml version="1.0" encoding="UTF-8"?>
<svg width="57px" height="42px" viewBox="0 0 57 42" version="1.1" xmlns="http://www.w3.org/2000/svg" xmlns:xlink="http://www.w3.org/1999/xlink">
    <!-- Generator: Sketch 52.4 (67378) - http://www.bohemiancoding.com/sketch -->
    <title>Group 15</title>
    <desc>Created with Sketch.</desc>
    <g id="Page-1" stroke="none" stroke-width="1" fill="none" fill-rule="evenodd">
        <g id="Group-15" transform="translate(-3.000000, 0.000000)">
            <g id="Group-14">
                <path d="M33.54,1 C39.0528,1 43.7644,2.955108 47.6746,6.86538 C51.5848,10.77566 53.54,15.48716 53.54,21 C53.54,26.5128 51.5848,31.2244 47.6746,35.1346 C43.7644,39.0448 39.0528,41 33.54,41 C28.02716,41 23.31566,39.0448 19.40538,35.1346 C15.495108,31.2244 13.54,26.5128 13.54,21 C13.54,15.48716 15.495108,10.77566 19.40538,6.86538 C23.31566,2.955108 28.02716,1 33.54,1 Z M28.30924,41 L29.35066,38.447 C29.47688,38.1376 29.54,37.8088 29.54,37.4608 C29.54,37.1126 29.38222,36.7838 29.06662,36.4744 C28.05676,35.3914 27.33092,34.579 26.88912,34.0376 C26.76288,33.8828 26.57354,33.438 26.32106,32.703 C26.0686,31.9682 25.97392,31.5234 26.03704,31.3686 C26.35262,30.6724 26.60508,29.744 26.79444,28.5836 C26.98378,27.6552 26.57354,26.8044 25.56366,26.0308 C25.12186,25.7212 24.68004,25.3344 24.23822,24.8704 C23.7964,24.4062 23.30726,23.9034 22.77076,23.3618 C22.23428,22.8202 21.80824,22.3948 21.49266,22.0854 C20.35656,21.0796 19.7254,20.34472 19.59918,19.88054 C19.03112,17.86916 18.71554,16.78612 18.65242,16.6314 C18.08438,15.6257 17.73724,14.562 17.611,13.44028 C17.48478,12.31854 17.51634,11.1388 17.70568,9.90102 C17.70568,9.3595 17.64256,8.3925 17.51634,7 C14.86543,10.71332 13.54,15.2002 13.54,20.46076 C13.54,26.1854 15.18101,31.0592 18.46308,35.082 C21.1771,38.4084 24.45912,40.3812 28.30924,41 Z M46.5926,35.416 C49.0488,32.7568 50.6978,29.642 51.54,26.0712 L49.54,25.8434 C48.0664,24.02 47.2592,22.3106 47.119,20.7151 C47.0488,20.03134 47.0136,18.96772 47.0136,17.52422 C47.0136,16.08072 46.9436,14.97912 46.8032,14.21938 C46.6628,13.5356 46.1892,12.58596 45.3822,11.37036 C44.575,10.15478 44.1014,9.35708 43.961,8.9772 C43.7506,8.4454 43.4172,7.64768 42.961,6.58404 C42.505,5.52042 42.1364,4.7227 41.8558,4.19088 C41.926,4.19088 42.0488,4.22886 42.2242,4.30484 C42.3996,4.38082 42.5224,4.45678 42.5926,4.53276 C43.2944,4.38082 43.7856,4.30484 44.0664,4.30484 C41.8206,2.557446 39.154,1.455842 36.0664,1 L36.0664,1.91168 L36.4874,2.937322 L35.0136,4.4188 L34.0664,4.07692 L33.01368,2.937322 L31.96106,1.5698 L30.48736,1 C29.01368,1.227922 27.43474,1.721744 25.75052,2.481482 L25.75052,3.2792 C25.96106,3.12726 26.34702,2.97531 26.90842,2.823362 C27.46982,2.671414 27.89088,2.51947 28.17158,2.367522 C28.31194,2.291548 28.87332,2.633424 29.8558,3.39316 C29.78562,3.46914 29.39966,3.83 28.6979,4.47578 C27.99614,5.12156 27.61018,5.5584 27.54,5.78632 C27.54,5.8623 27.6628,6.03324 27.90842,6.29914 C28.15404,6.56506 28.27684,6.77398 28.27684,6.92592 C28.27684,7.15384 28.2593,7.47674 28.2242,7.89458 C28.18912,8.31244 28.17158,8.63532 28.17158,8.86324 C29.64528,7.2678 30.4172,6.47008 30.48736,6.47008 C31.11896,6.31814 31.89088,6.64102 32.80316,7.43874 C33.7154,8.23648 34.2418,8.90124 34.3822,9.43304 C34.4522,9.66096 34.312,9.98386 33.961,10.4017 C33.6102,10.81956 33.04878,11.37036 32.27684,12.05414 C31.5049,12.7379 31.04878,13.15574 30.90842,13.3077 C30.76806,13.45964 30.45228,13.70656 29.96106,14.04844 C29.46982,14.39032 29.11894,14.7132 28.90842,15.0171 C28.6979,15.32098 28.6628,15.66286 28.80316,16.04274 C29.50492,17.56222 29.68036,18.47388 29.32948,18.77778 C29.18912,18.92972 29.01368,18.94872 28.80316,18.83476 C28.59264,18.7208 28.43474,18.58784 28.32948,18.4359 C28.2242,18.28396 28.08386,18.09402 27.90842,17.8661 C27.73298,17.63818 27.61018,17.48624 27.54,17.41026 C27.11894,16.87844 25.78562,16.61254 23.54,16.61254 C23.54,19.0437 24.06632,20.6771 25.11894,21.5128 C27.99616,23.792 29.64526,25.0456 30.06632,25.2736 C30.48738,25.5014 31.32946,25.5014 32.59264,25.2736 C33.8558,25.0456 34.6628,25.0836 35.0136,25.3874 C37.3294,27.1348 38.9786,28.2364 39.961,28.6924 C40.5926,28.9202 41.2944,29.433 42.0664,30.2308 C42.8382,31.0284 43.0488,31.6932 42.6978,32.225 C41.7856,33.7446 41.2944,34.6182 41.2242,34.8462 C40.6628,36.1378 39.961,37.0874 39.119,37.6952 C38.2066,38.4548 37.4698,39.5564 36.9084,41 C40.698,40.1642 43.926,38.303 46.5926,35.416 Z" id="path0_fill" fill="#95AABF" fill-rule="nonzero"></path>
                <path d="M12.54,21 C12.54,32.598 21.94234,42 33.54,42 C45.1376,42 54.54,32.598 54.54,21 C54.54,9.4021 45.1376,0 33.54,0 C21.94234,0 12.54,9.4021 12.54,21 Z M52.54,21 C52.54,31.4934 44.0332,40 33.54,40 C23.04684,40 14.54,31.4934 14.54,21 C14.54,10.5066 23.04684,2 33.54,2 C44.0332,2 52.54,10.5066 52.54,21 Z" id="path1_fill" fill="#95AABF" fill-rule="nonzero"></path>
                <g id="Group-13" transform="translate(0.000000, 5.000000)">
                    <path d="M54.9788162,25.5781453 C54.4954161,25.8453454 53.8870159,25.6701253 53.6198158,25.1867852 C53.3526157,24.703445 53.5278158,24.0950048 54.0112159,23.8278048 C56.6154167,22.3880643 57.9444171,20.8027038 57.9444171,19.3003034 C57.9444171,18.063143 57.0492168,16.7702026 55.2480163,15.5325622 C50.6820149,12.3951412 41.409412,10.3400006 31.0922089,10.3400006 C22.0893461,10.3400006 13.8376836,11.9000011 8.80346202,14.4400819 C5.79602109,15.9575423 4.24000061,17.6762029 4.24000061,19.3003034 C4.24000061,20.7595438 5.492581,22.2974243 7.95878176,23.7072447 C9.14010212,24.3825649 10.6904026,25.0012051 12.6060632,25.5563853 C13.1365033,25.7101253 13.4419034,26.2647655 13.2881834,26.7952257 C13.1344433,27.3256858 12.5798032,27.6310659 12.049343,27.4773459 C9.99226238,26.8811657 8.29908186,26.2055055 6.96620145,25.4435653 C3.94232252,23.7149447 2.24,21.6248641 2.24,19.3003034 C2.24,16.7436626 4.29352063,14.4754819 7.90252174,12.6545013 C13.2495034,9.9566105 21.800626,8.34 31.0922089,8.34 C41.7770122,8.34 51.4236151,10.4780007 56.3808166,13.8841817 C58.6726173,15.4589422 59.9444177,17.2960428 59.9444177,19.3003034 C59.9444177,21.6860841 58.1528172,23.8235248 54.9788162,25.5781453 Z" id="path3_fill" fill="#1C3C55" transform="translate(31.092209, 17.928562) scale(1, -1) rotate(-13.000000) translate(-31.092209, -17.928562) "></path>
                    <path d="M57.7570153,28.144405 C57.2738151,28.4116251 56.665415,28.2364051 56.3982149,27.7530649 C56.1310148,27.2697248 56.3062148,26.6612846 56.789415,26.3940845 C59.2256157,25.0472641 60.4638161,23.5701836 60.4638161,22.1808632 C60.4638161,21.0379828 59.6318159,19.8361025 57.9496154,18.6802621 C53.660614,15.7331812 44.9382114,13.8000006 35.2320084,13.8000006 C26.7612058,13.8000006 18.9982834,15.2676011 14.2660219,17.6553418 C11.4510211,19.0756822 10.0000006,20.6783827 10.0000006,22.1808632 C10.0000006,23.5300436 11.166621,24.962404 13.4731417,26.2809445 C13.9526018,26.5550445 14.1191019,27.1659247 13.8450018,27.6453849 C13.5709217,28.124865 12.9600415,28.2913451 12.4805614,28.017265 C9.6163725,26.3799245 8,24.3953839 8,22.1808632 C8,19.7458424 9.9485346,17.5936218 13.3650816,15.8697613 C18.4100832,13.3242105 26.4724857,11.8 35.2320084,11.8 C45.3058115,11.8 54.4020143,13.8160406 59.0822157,17.0318816 C61.2550164,18.5248421 62.4638167,20.2709026 62.4638167,22.1808632 C62.4638167,24.4535639 60.7630162,26.4827245 57.7570153,28.144405 Z" id="path2_fill" fill="#058657" transform="translate(35.231908, 20.034715) scale(1, -1) rotate(26.000000) translate(-35.231908, -20.034715) "></path>
                </g>
            </g>
        </g>
    </g>
</svg>