<?xml version="1.0" encoding="UTF-8"?>
<svg width="16px" height="17px" viewBox="0 0 16 17" version="1.1" xmlns="http://www.w3.org/2000/svg" xmlns:xlink="http://www.w3.org/1999/xlink">
    <!-- Generator: Sketch 52.2 (67145) - http://www.bohemiancoding.com/sketch -->
    <title>Shape</title>
    <desc>Created with Sketch.</desc>
    <g id="Page-1" stroke="none" stroke-width="1" fill="none" fill-rule="evenodd">
        <g id="Website-Copy-28" transform="translate(-486.000000, -388.000000)" fill="#FFFFFF" fill-rule="nonzero">
            <g id="Group-3" transform="translate(486.000000, 387.000000)">
                <path d="M14.8444444,18 L1.15555556,18 C0.533333333,18 0,17.5041322 0,16.8429752 L0,13.8677686 C0,12.7933884 1.6888889,12.7107438 1.77777777,13.8677686 L1.77777777,16.3471074 L14.2222222,16.3471074 L14.2222222,13.8677686 C14.2222222,12.7107438 16,12.7107438 16,13.8677686 L16,16.8429752 C16,17.5041322 15.4666667,18 14.8444444,18 Z M11.883871,7.14625437 L8.90322581,10.0294425 L8.90322581,1.87369339 C8.90322581,1.4368467 8.45161292,1 8,1 C7.54838708,1 7.09677419,1.43684668 7.09677419,1.87369339 L7.09677419,10.0294425 L4.11612903,7.14625437 C3.7548387,6.79677701 3.21290322,6.79677701 2.85161291,7.14625437 C2.49032258,7.49573173 2.49032258,8.01994776 2.85161291,8.3694251 L7.36774193,12.737892 C7.72903226,13.0873693 8.27096774,13.0873693 8.63225807,12.737892 L13.1483871,8.3694251 C13.5096774,8.10731708 13.5096774,7.49573171 13.1483871,7.14625437 C12.7870968,6.79677701 12.2451613,6.79677701 11.883871,7.14625437 Z" id="Shape"></path>
            </g>
        </g>
    </g>
</svg>