<?xml version="1.0" encoding="UTF-8"?>
<svg width="1187px" height="100px" viewBox="0 0 1187 100" version="1.1" xmlns="http://www.w3.org/2000/svg" xmlns:xlink="http://www.w3.org/1999/xlink">
    <!-- Generator: Sketch 52.2 (67145) - http://www.bohemiancoding.com/sketch -->
    <title>Group 3</title>
    <desc>Created with Sketch.</desc>
    <g id="Page-1" stroke="none" stroke-width="1" fill="none" fill-rule="evenodd">
        <g id="Group-3" transform="translate(1.000000, 1.000000)">
            <g id="Group-2" transform="translate(432.000000, 0.500000)">
                <polygon id="Fill-4" fill="#058657" points="227.973 59.636 286.084 59.636 286.084 42.469 227.973 42.469"></polygon>
                <polygon id="Fill-5" fill="#07B273" points="227.973 96.082 234.223 96.082 234.223 66.303 227.973 66.303"></polygon>
                <polygon id="Fill-6" fill="#07B273" points="227.973 70.303 286.084 70.303 286.084 66.303 227.973 66.303"></polygon>
                <polygon id="Fill-7" fill="#07B273" points="234.277 78.858 263.723 78.858 263.723 72.608 234.277 72.608"></polygon>
                <polygon id="Fill-8" fill="#07B273" points="305 78.858 334.444 78.858 334.444 72.608 305 72.608"></polygon>
                <polygon id="Fill-9" fill="#058657" points="269.447 78.858 298.892 78.858 298.892 72.608 269.447 72.608"></polygon>
                <path d="M227.973,96.082 L227.973,42.469 L340.557,42.469 L340.557,96.082 L227.973,96.082 Z M227.973,66.303 L340.557,66.303 L227.973,66.303 Z M227.973,62.969 L340.557,62.969 L227.973,62.969 Z M227.973,59.636 L340.557,59.636 L227.973,59.636 Z M269.637,96.082 L298.892,96.082 L298.892,72.803 L269.637,72.803 L269.637,96.082 Z M284.265,72.803 L284.265,96.082 L284.265,72.803 Z M234.223,87.553 L263.723,87.553 L263.723,72.803 L234.223,72.803 L234.223,87.553 Z M304.973,87.553 L334.473,87.553 L334.473,72.803 L304.973,72.803 L304.973,87.553 Z M233.973,52.303 C233.973,53.959 232.629,55.303 230.973,55.303 C229.315,55.303 227.973,53.959 227.973,52.303 L233.973,52.303 Z M239.973,52.303 C239.973,53.959 238.629,55.303 236.973,55.303 C235.315,55.303 233.973,53.959 233.973,52.303 L239.973,52.303 Z M245.973,52.303 C245.973,53.959 244.629,55.303 242.973,55.303 C241.315,55.303 239.973,53.959 239.973,52.303 L245.973,52.303 Z M251.973,52.303 C251.973,53.959 250.629,55.303 248.973,55.303 C247.315,55.303 245.973,53.959 245.973,52.303 L251.973,52.303 Z M257.973,52.303 C257.973,53.959 256.629,55.303 254.973,55.303 C253.315,55.303 251.973,53.959 251.973,52.303 L257.973,52.303 Z M263.973,52.303 C263.973,53.959 262.629,55.303 260.973,55.303 C259.315,55.303 257.973,53.959 257.973,52.303 L263.973,52.303 Z M269.973,52.303 C269.973,53.959 268.629,55.303 266.973,55.303 C265.315,55.303 263.973,53.959 263.973,52.303 L269.973,52.303 Z M275.973,52.303 C275.973,53.959 274.629,55.303 272.973,55.303 C271.315,55.303 269.973,53.959 269.973,52.303 L275.973,52.303 Z M281.973,52.303 C281.973,53.959 280.629,55.303 278.973,55.303 C277.315,55.303 275.973,53.959 275.973,52.303 L281.973,52.303 Z M287.973,52.303 C287.973,53.959 286.629,55.303 284.973,55.303 C283.315,55.303 281.973,53.959 281.973,52.303 L287.973,52.303 Z M293.973,52.303 C293.973,53.959 292.629,55.303 290.973,55.303 C289.315,55.303 287.973,53.959 287.973,52.303 L293.973,52.303 Z M299.973,52.303 C299.973,53.959 298.629,55.303 296.973,55.303 C295.315,55.303 293.973,53.959 293.973,52.303 L299.973,52.303 Z M305.973,52.303 C305.973,53.959 304.629,55.303 302.973,55.303 C301.315,55.303 299.973,53.959 299.973,52.303 L305.973,52.303 Z M311.973,52.303 C311.973,53.959 310.629,55.303 308.973,55.303 C307.315,55.303 305.973,53.959 305.973,52.303 L311.973,52.303 Z M317.973,52.303 C317.973,53.959 316.629,55.303 314.973,55.303 C313.315,55.303 311.973,53.959 311.973,52.303 L317.973,52.303 Z M323.973,52.303 C323.973,53.959 322.629,55.303 320.973,55.303 C319.315,55.303 317.973,53.959 317.973,52.303 L323.973,52.303 Z M329.973,52.303 C329.973,53.959 328.629,55.303 326.973,55.303 C325.315,55.303 323.973,53.959 323.973,52.303 L329.973,52.303 Z M335.973,52.303 C335.973,53.959 334.629,55.303 332.973,55.303 C331.315,55.303 329.973,53.959 329.973,52.303 L335.973,52.303 Z M340.557,54.85 C340.097,55.137 339.554,55.303 338.973,55.303 C337.315,55.303 335.973,53.959 335.973,52.303 L340.557,54.85 Z M233.973,46.122 C233.973,47.778 232.629,49.122 230.973,49.122 C229.315,49.122 227.973,47.778 227.973,46.122 L233.973,46.122 Z M239.973,46.122 C239.973,47.778 238.629,49.122 236.973,49.122 C235.315,49.122 233.973,47.778 233.973,46.122 L239.973,46.122 Z M245.973,46.122 C245.973,47.778 244.629,49.122 242.973,49.122 C241.315,49.122 239.973,47.778 239.973,46.122 L245.973,46.122 Z M251.973,46.122 C251.973,47.778 250.629,49.122 248.973,49.122 C247.315,49.122 245.973,47.778 245.973,46.122 L251.973,46.122 Z M257.973,46.122 C257.973,47.778 256.629,49.122 254.973,49.122 C253.315,49.122 251.973,47.778 251.973,46.122 L257.973,46.122 Z M263.973,46.122 C263.973,47.778 262.629,49.122 260.973,49.122 C259.315,49.122 257.973,47.778 257.973,46.122 L263.973,46.122 Z M269.973,46.122 C269.973,47.778 268.629,49.122 266.973,49.122 C265.315,49.122 263.973,47.778 263.973,46.122 L269.973,46.122 Z M275.973,46.122 C275.973,47.778 274.629,49.122 272.973,49.122 C271.315,49.122 269.973,47.778 269.973,46.122 L275.973,46.122 Z M281.973,46.122 C281.973,47.778 280.629,49.122 278.973,49.122 C277.315,49.122 275.973,47.778 275.973,46.122 L281.973,46.122 Z M287.973,46.122 C287.973,47.778 286.629,49.122 284.973,49.122 C283.315,49.122 281.973,47.778 281.973,46.122 L287.973,46.122 Z M293.973,46.122 C293.973,47.778 292.629,49.122 290.973,49.122 C289.315,49.122 287.973,47.778 287.973,46.122 L293.973,46.122 Z M299.973,46.122 C299.973,47.778 298.629,49.122 296.973,49.122 C295.315,49.122 293.973,47.778 293.973,46.122 L299.973,46.122 Z M305.973,46.122 C305.973,47.778 304.629,49.122 302.973,49.122 C301.315,49.122 299.973,47.778 299.973,46.122 L305.973,46.122 Z M311.973,46.122 C311.973,47.778 310.629,49.122 308.973,49.122 C307.315,49.122 305.973,47.778 305.973,46.122 L311.973,46.122 Z" id="Stroke-10" stroke="#4A5B60" stroke-width="1.282" stroke-linecap="round" stroke-linejoin="round"></path>
                <path d="M317.973,46.122 C317.973,47.778 316.629,49.122 314.973,49.122 C313.315,49.122 311.973,47.778 311.973,46.122 M323.973,46.122 C323.973,47.778 322.629,49.122 320.973,49.122 C319.315,49.122 317.973,47.778 317.973,46.122 M329.973,46.122 C329.973,47.778 328.629,49.122 326.973,49.122 C325.315,49.122 323.973,47.778 323.973,46.122 M335.973,46.122 C335.973,47.778 334.629,49.122 332.973,49.122 C331.315,49.122 329.973,47.778 329.973,46.122 M340.557,48.669 C340.097,48.956 339.554,49.122 338.973,49.122 C337.315,49.122 335.973,47.778 335.973,46.122 M247.285,72.803 L247.285,87.553 M250.66,72.803 L250.66,87.553 M318.035,72.803 L318.035,87.553 M321.41,72.803 L321.41,87.553" id="Stroke-11" stroke="#4A5B60" stroke-width="1.282" stroke-linecap="round" stroke-linejoin="round"></path>
                <polyline id="Fill-12" fill="#058657" points="638.629 17 611.25 53.625 608 53.625 608 56.333 612.729 56.333 638.625 22.333"></polyline>
                <path d="M655,37.415 C655.458,38.357 656.019,39.182 656.75,39.924 L682.966,5.502 L682.97,0 L655,37.415" id="Fill-13" fill="#058657"></path>
                <path d="M638.869,72.152 C638.869,72.094 638.892,72.054 638.899,72.001 C638.89,72.001 638.881,72 638.873,72 C635.093,72 632,75.092 632,78.871 L632,96.25 L638.869,96.25 L638.869,72.152" id="Fill-15" fill="#058657"></path>
                <path d="M682.891,69.174 C682.891,69.108 682.918,69.062 682.927,69.002 C682.916,69.002 682.906,69 682.895,69 C678.553,69 675,72.554 675,76.897 L675,96.865 L682.891,96.865 L682.891,69.174" id="Fill-16" fill="#058657"></path>
                <polyline id="Fill-17" fill="#07B273" points="618.813 96.329 613 96.329 613 56.314 618.813 49 618.813 96.329"></polyline>
                <polygon id="Fill-18" fill="#07B273" points="632 68.379 638.869 68.379 638.869 61 632 61"></polygon>
                <polygon id="Fill-19" fill="#07B273" points="619 68.379 625.867 68.379 625.867 61 619 61"></polygon>
                <polygon id="Fill-20" fill="#07B273" points="652 68.379 658.867 68.379 658.867 61 652 61"></polygon>
                <polygon id="Fill-21" fill="#07B273" points="665 65.099 669.614 65.099 669.614 57 665 57"></polygon>
                <polygon id="Fill-22" fill="#07B273" points="697 65.101 706.228 65.101 706.228 56 697 56"></polygon>
                <polygon id="Fill-23" fill="#07B273" points="675 63.379 683.09 63.379 683.09 56 675 56"></polygon>
                <path d="M638.9,22.583 L613,56.583 L613,96.598 L664.798,96.598 L664.798,56.583 L638.9,22.583 Z M682.096,96.598 L713.709,96.598 L713.709,47.753 L682.096,6.25 L656.182,40.269 M632.027,96.598 L632.027,79.219 C632.027,75.44 635.12,72.348 638.9,72.348 C642.679,72.348 645.771,75.44 645.771,79.219 L645.771,96.598 L632.027,96.598 Z M674.596,96.598 L674.596,76.551 C674.596,72.191 678.163,68.625 682.523,68.625 C686.882,68.625 690.449,72.191 690.449,76.551 L690.449,96.598 L674.596,96.598 Z M641.932,88.125 C641.107,88.125 640.432,87.45 640.432,86.625 C640.432,85.799 641.107,85.125 641.932,85.125 C642.757,85.125 643.432,85.799 643.432,86.625 C643.432,87.45 642.757,88.125 641.932,88.125 Z M686.194,87.125 C685.369,87.125 684.694,86.45 684.694,85.625 C684.694,84.799 685.369,84.125 686.194,84.125 C687.019,84.125 687.694,84.799 687.694,85.625 C687.694,86.45 687.019,87.125 686.194,87.125 Z M654.083,37.474 L682.097,-1.42108547e-14 L715.477,44.462 L719.271,44.462 L719.271,47.75 L713.537,47.75" id="Stroke-24" stroke="#4A5B60" stroke-width="1.282" stroke-linecap="round" stroke-linejoin="round"></path>
                <path d="M635,41.533 C635,39.04 637.039,37 639.533,37 C642.025,37 644.065,39.04 644.065,41.533 C644.065,44.025 642.025,46.065 639.533,46.065 C637.039,46.065 635,44.025 635,41.533 Z" id="Fill-25" fill="#07B273"></path>
                <path d="M639.533,46.065 C637.039,46.065 635,44.025 635,41.533 C635,39.04 637.039,37 639.533,37 C642.025,37 644.065,39.04 644.065,41.533 C644.065,44.025 642.025,46.065 639.533,46.065 Z" id="Stroke-26" stroke="#4A5B60" stroke-width="1.282" stroke-linecap="round" stroke-linejoin="round"></path>
                <path d="M682.817,32.632 C679.617,32.632 677,30.015 677,26.816 C677,23.617 679.617,21 682.817,21 C686.016,21 688.633,23.617 688.633,26.816 C688.633,30.015 686.016,32.632 682.817,32.632" id="Fill-27" fill="#07B273"></path>
                <path d="M682.252,32.681 C679.052,32.681 676.435,30.064 676.435,26.865 C676.435,23.666 679.052,21.049 682.252,21.049 C685.451,21.049 688.068,23.666 688.068,26.865 C688.068,30.064 685.451,32.681 682.252,32.681 Z M618.583,84.875 L625.917,84.875 L625.917,61 L618.583,61 L618.583,84.875 Z M651.503,84.875 L658.837,84.875 L658.837,61 L651.503,61 L651.503,84.875 Z M631.756,68.375 L645.5,68.375 L645.5,61 L631.756,61 L631.756,68.375 Z M674.325,63.028 L689.673,63.028 L689.673,55.258 L674.325,55.258 L674.325,63.028 Z M655.17,61 L655.17,84.875 L655.17,61 Z M622.25,61 L622.25,84.875 L622.25,61 Z M618.583,68.375 L625.917,68.375 L618.583,68.375 Z M618.583,76.34 L625.917,76.34 L618.583,76.34 Z M651.503,68.375 L658.837,68.375 L651.503,68.375 Z M651.503,76.34 L658.837,76.34 L651.503,76.34 Z M664.527,85.375 L669.141,85.375 L669.141,56.333 L664.527,56.333 L664.527,85.375 Z M696.355,85.375 L705.583,85.375 L705.583,55.331 L696.355,55.331 L696.355,85.375 Z M700.969,55.331 L700.969,85.375 L700.969,55.331 Z M664.527,85.375 L664.527,56.333 L638.629,22.333 L612.729,56.333 L608,56.333 L608,53.625 L611.25,53.625 L638.629,17 L666.125,53.625 L669.25,53.625 L669.25,56.333 L664.527,56.333 L664.527,85.375 Z M664.527,64.612 L669.141,64.612 L664.527,64.612 Z M664.527,74.635 L669.141,74.635 L664.527,74.635 Z M696.355,64.612 L705.583,64.612 L696.355,64.612 Z M696.355,74.635 L705.583,74.635 L696.355,74.635 Z" id="Stroke-28" stroke="#4A5B60" stroke-width="1.282" stroke-linecap="round" stroke-linejoin="round"></path>
                <path d="M551,48.5 C551,49.881 549.881,51 548.5,51 C547.119,51 546,49.881 546,48.5 C546,47.119 547.119,46 548.5,46 C549.881,46 551,47.119 551,48.5" id="Fill-59" fill="#07B273"></path>
                <path d="M574,59.5 C574,60.881 572.88,62 571.5,62 C570.12,62 569,60.881 569,59.5 C569,58.12 570.12,57 571.5,57 C572.88,57 574,58.12 574,59.5" id="Fill-60" fill="#07B273"></path>
                <path d="M548.744,45.735 C548.744,42.581 551.325,40 554.479,40 C557.634,40 560.215,42.581 560.215,45.735 L560.215,96.903 L548.744,45.735 Z M571.684,56.947 C571.684,53.792 569.103,51.212 565.949,51.212 C562.795,51.212 560.215,53.792 560.215,56.947 L560.215,96.903 L571.684,56.947 Z M551,48.712 C551,50.093 549.881,51.212 548.5,51.212 C547.119,51.212 546,50.093 546,48.712 C546,47.331 547.119,46.212 548.5,46.212 C549.881,46.212 551,47.331 551,48.712 Z M574.184,59.895 C574.184,61.276 573.064,62.395 571.684,62.395 C570.304,62.395 569.184,61.276 569.184,59.895 C569.184,58.515 570.304,57.395 571.684,57.395 C573.064,57.395 574.184,58.515 574.184,59.895 Z" id="Stroke-61" stroke="#4A5B60" stroke-width="1.282" stroke-linecap="round" stroke-linejoin="round"></path>
                <polygon id="Fill-62" fill="#058657" points="396 29.089 474.104 29.089 474.104 23 396 23"></polygon>
                <polygon id="Fill-63" fill="#058657" points="396 64.646 474.104 64.646 474.104 60 396 60"></polygon>
                <polygon id="Fill-64" fill="#07B273" points="404 74.645 417.833 74.645 417.833 70 404 70"></polygon>
                <polygon id="Fill-65" fill="#07B273" points="426 74.645 439.833 74.645 439.833 70 426 70"></polygon>
                <polygon id="Fill-66" fill="#058657" points="439 74.645 443.646 74.645 443.646 70 439 70"></polygon>
                <polygon id="Fill-67" fill="#07B273" points="430 49.646 434.646 49.646 434.646 36 430 36"></polygon>
                <polygon id="Fill-68" fill="#07B273" points="405 49.646 409.646 49.646 409.646 36 405 36"></polygon>
                <polygon id="Fill-69" fill="#07B273" points="455 49.646 459.646 49.646 459.646 36 455 36"></polygon>
                <polygon id="Fill-70" fill="#07B273" points="452 74.645 465.833 74.645 465.833 70 452 70"></polygon>
                <polygon id="Fill-71" fill="#07B273" points="474 85.167 503.5 85.167 503.5 82 474 82"></polygon>
                <polygon id="Fill-72" fill="#058657" points="480 88.167 482.666 88.167 482.666 85 480 85"></polygon>
                <polygon id="Fill-73" fill="#058657" points="490 88.167 492.666 88.167 492.666 85 490 85"></polygon>
                <polygon id="Fill-74" fill="#058657" points="500 88.167 502.666 88.167 502.666 85 500 85"></polygon>
                <polygon id="Fill-75" fill="#058657" points="511 88.167 513.666 88.167 513.666 85 511 85"></polygon>
                <path d="M396,97.015 L474.104,97.015 L474.104,23 L396,23 L396,97.015 Z M396,29.333 L474.104,29.333 L396,29.333 Z M396,60.354 L474.104,60.354 L474.104,56.854 L396,56.854 L396,60.354 Z M425.802,97.015 L444.302,97.015 L444.302,70.417 L425.802,70.417 L425.802,97.015 Z M405.063,49.906 L414.813,49.906 L414.813,36.281 L405.063,36.281 L405.063,49.906 Z M439.302,70.417 L439.302,97.015 L439.302,70.417 Z M409.938,36.281 L409.938,49.906 L409.938,36.281 Z M405.063,40.843 L414.188,40.843 L405.063,40.843 Z M405.063,45.281 L414.188,45.281 L405.063,45.281 Z M430.177,49.906 L439.927,49.906 L439.927,36.281 L430.177,36.281 L430.177,49.906 Z M435.052,36.281 L435.052,49.906 L435.052,36.281 Z M430.177,40.843 L439.302,40.843 L430.177,40.843 Z M430.177,45.281 L439.302,45.281 L430.177,45.281 Z M454.813,49.906 L464.563,49.906 L464.563,36.281 L454.813,36.281 L454.813,49.906 Z M459.688,36.281 L459.688,49.906 L459.688,36.281 Z M454.813,40.843 L463.938,40.843 L454.813,40.843 Z M454.813,45.281 L463.938,45.281 L454.813,45.281 Z M403.771,88.834 L417.604,88.834 L417.604,70.417 L403.771,70.417 L403.771,88.834 Z M452.771,88.834 L466.604,88.834 L466.604,70.417 L452.771,70.417 L452.771,88.834 Z M403.771,75.334 L417.604,75.334 L403.771,75.334 Z M452.771,75.334 L466.604,75.334 L452.771,75.334 Z M474.104,85.167 L517.938,85.167 L517.938,82 L474.104,82 L474.104,85.167 Z M479.938,97.015 L483.104,97.015 L483.104,85.167 L479.938,85.167 L479.938,97.015 Z M490.188,97.015 L493.354,97.015 L493.354,85.167 L490.188,85.167 L490.188,97.015 Z M500.438,97.015 L503.604,97.015 L503.604,85.167 L500.438,85.167 L500.438,97.015 Z M510.688,97.015 L513.854,97.015 L513.854,85.167 L510.688,85.167 L510.688,97.015 Z M479.938,82 L483.104,82 L483.104,75.334 L479.938,75.334 L479.938,82 Z M490.188,82 L493.354,82 L493.354,75.334 L490.188,75.334 L490.188,82 Z M500.438,82 L503.604,82 L503.604,75.334 L500.438,75.334 L500.438,82 Z M510.688,82 L513.854,82 L513.854,75.334 L510.688,75.334 L510.688,82 Z" id="Stroke-76" stroke="#4A5B60" stroke-width="1.282" stroke-linecap="round" stroke-linejoin="round"></path>
                <polyline id="Fill-77" fill="#058657" points="46.438 35.415 46.438 38.463 65.935 30.698 85.431 38.775 85.431 35.415 65.935 27.136 46.438 35.415"></polyline>
                <path d="M65.847,71.14 C61.948,71.188 58.772,74.389 58.772,78.299 L58.772,96.082 L65.847,96.082 L65.847,71.14" id="Fill-78" fill="#07B273"></path>
                <polygon id="Fill-79" fill="#07B273" points="32.876 69.849 49.542 69.849 49.542 65.44 32.876 65.44"></polygon>
                <polygon id="Fill-80" fill="#07B273" points="62.021 50.415 65.935 50.415 65.935 38.165 62.021 38.165"></polygon>
                <polygon id="Fill-81" fill="#07B273" points="82.16 69.849 98.827 69.849 98.827 65.44 82.16 65.44"></polygon>
                <polygon id="Fill-82" fill="#07B273" points="23.646 59.045 108.221 59.045 108.221 54.636 23.646 54.636"></polygon>
                <polygon id="Fill-83" fill="#058657" points="23.646 54.313 108.221 54.313 108.221 49.903 23.646 49.903"></polygon>
                <polygon id="Fill-84" fill="#058657" points="9.972 77.657 23.646 77.657 23.646 73.248 9.972 73.248"></polygon>
                <polygon id="Fill-85" fill="#058657" points="108.222 77.657 121.896 77.657 121.896 73.248 108.222 73.248"></polygon>
                <path d="M23.646,96.082 L108.221,96.082 L108.221,50.415 L23.646,50.415 L23.646,96.082 Z M23.646,58.886 L2.222,71.136 L0.722,67.886 L23.646,54.636 L108.222,54.636 L131.146,67.886 L129.646,71.136 L108.222,58.886 L23.646,58.886 Z M4.472,96.082 L4.472,69.849 L4.472,96.082 Z M9.972,96.082 L23.646,96.082 L23.646,73.248 L9.972,73.248 L9.972,96.082 Z M15.48,96.082 L18.139,96.082 L18.139,73.248 L15.48,73.248 L15.48,96.082 Z M127.396,96.082 L127.396,69.849 L127.396,96.082 Z M108.222,96.082 L121.896,96.082 L121.896,73.248 L108.222,73.248 L108.222,96.082 Z M113.73,96.082 L116.389,96.082 L116.389,73.248 L113.73,73.248 L113.73,96.082 Z M85.431,50.415 L46.438,50.415 L46.438,35.415 L65.935,27.136 L85.431,35.415 L85.431,50.415 Z M46.438,38.775 L65.935,30.698 L85.431,38.775 M58.771,96.082 L58.771,78.299 C58.771,74.359 61.995,71.136 65.935,71.136 C69.874,71.136 73.097,74.359 73.097,78.299 L73.097,96.082 L58.771,96.082 Z M62.021,50.415 L69.847,50.415 L69.847,38.165 L62.021,38.165 L62.021,50.415 Z M62.021,44.386 L69.847,44.386 L62.021,44.386 Z M65.935,38.165 L65.935,50.415 L65.935,38.165 Z M70.077,86.803 C70.077,87.412 69.582,87.907 68.972,87.907 C68.362,87.907 67.868,87.412 67.868,86.803 C67.868,86.193 68.362,85.698 68.972,85.698 C69.582,85.698 70.077,86.193 70.077,86.803 Z M32.876,84.665 L49.542,84.665 L49.542,65.44 L32.876,65.44 L32.876,84.665 Z M32.876,73.248 L49.209,73.248 L32.876,73.248 Z M82.327,84.665 L98.993,84.665 L98.993,65.44 L82.327,65.44 L82.327,84.665 Z M82.327,73.248 L98.66,73.248 L82.327,73.248 Z M41.042,73.248 L41.042,84.665 L41.042,73.248 Z M90.66,73.248 L90.66,84.665 L90.66,73.248 Z" id="Stroke-86" stroke="#4A5B60" stroke-width="1.282" stroke-linecap="round" stroke-linejoin="round"></path>
                <path d="M190.121,49.483 C190.121,57.568 183.566,64.122 175.481,64.122 C167.396,64.122 160.842,57.568 160.842,49.483 C160.842,41.397 167.396,34.843 175.481,34.843 C183.566,34.843 190.121,41.397 190.121,49.483" id="Fill-87" fill="#07B273"></path>
                <path d="M194.376,71.206 C194.376,73.88 192.208,76.047 189.534,76.047 C186.86,76.047 184.692,73.88 184.692,71.206 C184.692,68.531 186.86,66.364 189.534,66.364 C192.208,66.364 194.376,68.531 194.376,71.206" id="Fill-88" fill="#07B273"></path>
                <path d="M164.509,49.483 C164.509,42.02 170.097,35.874 177.315,34.97 C176.713,34.895 176.104,34.843 175.481,34.843 C167.396,34.843 160.842,41.397 160.842,49.483 C160.842,57.568 167.396,64.122 175.481,64.122 C176.104,64.122 176.713,64.071 177.315,63.995 C170.097,63.091 164.509,56.946 164.509,49.483" id="Fill-89" fill="#058657"></path>
                <path d="M188.359,71.206 C188.359,69.181 189.604,67.452 191.367,66.728 C190.802,66.496 190.184,66.364 189.534,66.364 C186.86,66.364 184.692,68.531 184.692,71.206 C184.692,73.879 186.86,76.047 189.534,76.047 C190.184,76.047 190.802,75.915 191.367,75.683 C189.604,74.959 188.359,73.23 188.359,71.206" id="Fill-90" fill="#058657"></path>
                <path d="M190.121,49.483 C190.121,57.568 183.566,64.122 175.481,64.122 C167.396,64.122 160.842,57.568 160.842,49.483 C160.842,41.397 167.396,34.843 175.481,34.843 C183.566,34.843 190.121,41.397 190.121,49.483 Z M194.376,71.206 C194.376,73.88 192.208,76.047 189.534,76.047 C186.86,76.047 184.692,73.88 184.692,71.206 C184.692,68.531 186.86,66.364 189.534,66.364 C192.208,66.364 194.376,68.531 194.376,71.206 Z M175.481,49.483 L175.481,96.082 L175.481,49.483 Z M170.24,54.483 L175.481,61.149 L170.24,54.483 Z M189.534,71.983 L175.481,83.261 L189.534,71.983 Z" id="Stroke-91" stroke="#4A5B60" stroke-width="1.282" stroke-linecap="round" stroke-linejoin="round"></path>
            </g>
            <polygon id="Fill-14" fill="#07B273" points="1097 95.973 1101.614 95.973 1101.614 85 1097 85"></polygon>
            <polygon id="Fill-29" fill="#07B273" points="331 96.965 338.775 96.965 338.775 55.067 331 55.067"></polygon>
            <polygon id="Fill-30" fill="#07B273" points="258 96.965 266.332 96.965 266.332 55.067 258 55.067"></polygon>
            <polygon id="Fill-31" fill="#07B273" points="294 96.032 298.166 96.032 298.166 74.067 294 74.067"></polygon>
            <polygon id="Fill-32" fill="#07B273" points="274 80.033 278.166 80.033 278.166 65.067 274 65.067"></polygon>
            <polygon id="Fill-33" fill="#07B273" points="314 34.45 318.166 34.45 318.166 21.067 314 21.067"></polygon>
            <polygon id="Fill-34" fill="#07B273" points="313 25.233 318.371 25.233 318.371 21.067 313 21.067"></polygon>
            <polygon id="Fill-35" fill="#07B273" points="315 80.033 319.166 80.033 319.166 65.067 315 65.067"></polygon>
            <polygon id="Fill-36" fill="#07B273" points="367 96.532 373.167 96.532 373.167 70.067 367 70.067"></polygon>
            <polygon id="Fill-37" fill="#07B273" points="339 76.234 373.642 76.234 373.642 70.067 339 70.067"></polygon>
            <polygon id="Fill-38" fill="#058657" points="339 96.94 348.549 96.94 348.549 62.067 339 62.067"></polygon>
            <polygon id="Fill-39" fill="#058657" points="258 61.928 338.962 61.928 338.962 55.067 258 55.067"></polygon>
            <polyline id="Fill-40" fill="#07B273" points="333.154 40.929 263 40.929 265.827 34.067 330.125 34.067 333.154 40.929"></polyline>
            <polygon id="Path" stroke="#4A5B60" stroke-width="1.282" stroke-linecap="round" stroke-linejoin="round" points="257.609 96.849 257.609 54.951 338.571 54.951 338.571 96.849"></polygon>
            <path d="M265.68,96.849 L265.68,54.951 L265.68,96.849 Z" id="Path" stroke="#4A5B60" stroke-width="1.282" stroke-linecap="round" stroke-linejoin="round"></path>
            <path d="M330.796,96.849 L330.796,54.951 L330.796,96.849 Z" id="Path" stroke="#4A5B60" stroke-width="1.282" stroke-linecap="round" stroke-linejoin="round"></path>
            <polygon id="Path" stroke="#4A5B60" stroke-width="1.282" stroke-linecap="round" stroke-linejoin="round" points="290.374 96.849 290.374 71.551 306.102 71.551 306.102 96.849"></polygon>
            <polygon id="Path" stroke="#4A5B60" stroke-width="1.282" stroke-linecap="round" stroke-linejoin="round" points="274.194 79.884 281.861 79.884 281.861 65.217 274.194 65.217"></polygon>
            <polygon id="Path" stroke="#4A5B60" stroke-width="1.282" stroke-linecap="round" stroke-linejoin="round" points="314.615 79.884 322.282 79.884 322.282 65.217 314.615 65.217"></polygon>
            <polygon id="Path" stroke="#4A5B60" stroke-width="1.282" stroke-linecap="round" stroke-linejoin="round" points="313.769 34.434 323.129 34.434 323.129 25.551 313.769 25.551"></polygon>
            <polygon id="Path" stroke="#4A5B60" stroke-width="1.282" stroke-linecap="round" stroke-linejoin="round" points="312.564 25.551 324.314 25.551 324.314 21.051 312.564 21.051"></polygon>
            <polygon id="Path" stroke="#4A5B60" stroke-width="1.282" stroke-linecap="round" stroke-linejoin="round" points="338.571 62.717 368.713 62.717 373.213 70.384 338.571 70.384"></polygon>
            <path d="M373.213,70.384 L373.213,96.849 L373.213,70.384 Z" id="Path" stroke="#4A5B60" stroke-width="1.282" stroke-linecap="round" stroke-linejoin="round"></path>
            <polyline id="Path" stroke="#4A5B60" stroke-width="1.282" stroke-linecap="round" stroke-linejoin="round" points="338.571 75.9 367.046 75.9 367.046 96.849"></polyline>
            <path d="M338.571,82.009 L357.796,82.009 L338.571,82.009 Z" id="Path" stroke="#4A5B60" stroke-width="1.282" stroke-linecap="round" stroke-linejoin="round"></path>
            <path d="M338.571,86.811 L357.796,86.811 L338.571,86.811 Z" id="Path" stroke="#4A5B60" stroke-width="1.282" stroke-linecap="round" stroke-linejoin="round"></path>
            <path d="M338.571,91.612 L357.796,91.612 L338.571,91.612 Z" id="Path" stroke="#4A5B60" stroke-width="1.282" stroke-linecap="round" stroke-linejoin="round"></path>
            <polygon id="Path" stroke="#4A5B60" stroke-width="1.282" stroke-linecap="round" stroke-linejoin="round" points="293.296 96.849 293.296 74.884 302.796 74.884 302.796 96.849"></polygon>
            <path d="M264.247,38.863 L292.42,38.863 L264.247,38.863 Z" id="Path" stroke="#4A5B60" stroke-width="1.282" stroke-linecap="round" stroke-linejoin="round"></path>
            <path d="M262.093,43.881 L292.42,43.881 L262.093,43.881 Z" id="Path" stroke="#4A5B60" stroke-width="1.282" stroke-linecap="round" stroke-linejoin="round"></path>
            <path d="M260.293,48.8 L292.42,48.8 L260.293,48.8 Z" id="Path" stroke="#4A5B60" stroke-width="1.282" stroke-linecap="round" stroke-linejoin="round"></path>
            <polygon id="Path" stroke="#4A5B60" stroke-width="1.282" stroke-linecap="round" stroke-linejoin="round" points="257.609 54.951 265.68 34.434 330.796 34.434 338.571 54.951"></polygon>
            <polygon id="Fill-42" fill="#058657" points="87 76.156 122.15 76.156 122.15 70.067 87 70.067"></polygon>
            <polygon id="Fill-43" fill="#058657" points="87 49.156 122.15 49.156 122.15 43.067 87 43.067"></polygon>
            <polygon id="Fill-44" fill="#058657" points="44 49.156 79.15 49.156 79.15 43.067 44 43.067"></polygon>
            <polygon id="Fill-45" fill="#058657" points="44 76.156 79.15 76.156 79.15 70.067 44 70.067"></polygon>
            <polygon id="Fill-46" fill="#058657" points="142 66.561 175.351 66.561 175.351 62.067 142 62.067"></polygon>
            <polygon id="Fill-47" fill="#058657" points="142 96.94 151.549 96.94 151.549 62.067 142 62.067"></polygon>
            <polygon id="Fill-48" fill="#07B273" points="35 96.484 40.812 96.484 40.812 43.067 35 43.067"></polygon>
            <polygon id="Fill-49" fill="#07B273" points="133 96.815 141.857 96.815 141.857 38.067 133 38.067"></polygon>
            <polygon id="Fill-50" fill="#07B273" points="79 49.143 86.076 49.143 86.076 42.067 79 42.067"></polygon>
            <polygon id="Fill-51" fill="#07B273" points="28 40.086 141.2 40.086 141.2 36.067 28 36.067"></polygon>
            <path d="M121.383,59.321 L86.233,59.321 L121.383,59.321 Z M68.155,43.407 L68.155,66.445 L68.155,43.407 Z M56.081,43.407 L56.081,66.445 L56.081,43.407 Z M68.155,70.115 L68.155,96.824 L68.155,70.115 Z M56.081,70.115 L56.081,96.824 L56.081,70.115 Z M159.006,89.905 L141.431,89.905 L159.006,89.905 Z M159.006,83.885 L141.431,83.885 L159.006,83.885 Z M159.006,78.072 L141.431,78.072 L159.006,78.072 Z M28.231,36.067 L141.431,36.067 L141.431,96.824 L121.383,96.824 L121.383,43.407 L28.231,43.407 L28.231,36.067 Z M79.157,43.407 L79.157,96.824 L86.233,96.824 L86.233,43.407 L79.157,43.407 Z M121.383,96.824 L35.15,96.824 L35.15,43.407 M44.007,43.407 L44.007,96.824 L44.007,43.407 Z M44.007,66.445 L79.157,66.445 L44.007,66.445 Z M44.007,70.115 L79.157,70.115 L44.007,70.115 Z M86.233,66.445 L121.383,66.445 L86.233,66.445 Z M86.233,70.115 L121.383,70.115 L86.233,70.115 Z M141.431,61.951 L174.782,61.951 L174.782,96.824 L141.431,96.824 L141.431,61.951 Z M141.555,71.526 L167.12,71.526 L166.894,96.824 M141.431,50.568 L174.782,50.568 L141.431,50.568 Z M160.269,50.568 L160.269,61.951 L160.269,50.568 Z M149.769,50.568 L149.769,61.951 L149.769,50.568 Z M170.769,50.568 L170.769,61.951 L170.769,50.568 Z M141.431,53.267 L174.782,53.267 L141.431,53.267 Z M141.431,56.173 L174.782,56.173 L141.431,56.173 Z M0,96.824 L210.013,96.824 L0,96.824 Z M202.558,96.824 L1184.571,96.824 L202.558,96.824 Z" id="Stroke-52" stroke="#4A5B60" stroke-width="1.282" stroke-linecap="round" stroke-linejoin="round"></path>
            <path d="M215.469,48.742 C215.469,59.056 211.783,67.417 207.234,67.417 C202.686,67.417 199,59.056 199,48.742 C199,38.428 202.686,30.067 207.234,30.067 C211.783,30.067 215.469,38.428 215.469,48.742" id="Fill-53" fill="#07B273"></path>
            <path d="M204,48.742 C204,40.406 206.41,33.35 209.735,30.948 C208.946,30.379 208.107,30.067 207.234,30.067 C202.686,30.067 199,38.428 199,48.742 C199,59.056 202.686,67.417 207.234,67.417 C208.107,67.417 208.946,67.105 209.735,66.535 C206.41,64.134 204,57.078 204,48.742" id="Fill-54" fill="#058657"></path>
            <path d="M230.675,62.306 C230.675,69.616 228.062,75.543 224.838,75.543 C221.613,75.543 219,69.616 219,62.306 C219,54.994 221.613,49.067 224.838,49.067 C228.062,49.067 230.675,54.994 230.675,62.306" id="Fill-55" fill="#FBE4DF"></path>
            <path d="M230.675,62.306 C230.675,69.616 228.062,75.543 224.838,75.543 C221.613,75.543 219,69.616 219,62.306 C219,54.994 221.613,49.067 224.838,49.067 C228.062,49.067 230.675,54.994 230.675,62.306" id="Fill-56" fill="#07B273"></path>
            <path d="M222.833,62.306 C222.833,56.519 224.474,51.612 226.754,49.813 C226.153,49.338 225.51,49.067 224.838,49.067 C221.613,49.067 219,54.994 219,62.306 C219,69.616 221.613,75.543 224.838,75.543 C225.51,75.543 226.153,75.272 226.754,74.798 C224.474,72.998 222.833,68.092 222.833,62.306" id="Fill-57" fill="#058657"></path>
            <path d="M207.234,96.791 L207.234,67.417 L207.234,96.791 Z M215.469,48.742 C215.469,59.056 211.783,67.417 207.234,67.417 C202.686,67.417 199,59.056 199,48.742 C199,38.428 202.686,30.067 207.234,30.067 C211.783,30.067 215.469,38.428 215.469,48.742 Z M225.1,96.791 L225.1,75.969 L225.1,96.791 Z M230.937,62.732 C230.937,70.042 228.324,75.969 225.1,75.969 C221.875,75.969 219.262,70.042 219.262,62.732 C219.262,55.42 221.875,49.493 225.1,49.493 C228.324,49.493 230.937,55.42 230.937,62.732 Z" id="Stroke-58" stroke="#4A5B60" stroke-width="1.282" stroke-linecap="round" stroke-linejoin="round"></path>
        </g>
    </g>
</svg>