<svg width="443px" height="314px" viewBox="0 0 443 314" version="1.1" xmlns="http://www.w3.org/2000/svg" xmlns:xlink="http://www.w3.org/1999/xlink">
    <title>OCM</title>
    <desc>OCM</desc>
    <g id="Page-1" stroke="none" stroke-width="1" fill="none" fill-rule="evenodd">
        <g id="Website-Copy-27" transform="translate(-721.000000, -694.000000)">
            <g id="Group-4" transform="translate(685.000000, 694.000000)">
                <g id="Group-6" transform="translate(36.000000, 0.000000)">
                    <g id="Group-8">
                        <rect id="Rectangle" fill="#FFFFFF" x="0" y="0" width="443" height="314" rx="10"></rect>
                        <g id="Group-5" transform="translate(63.000000, 47.000000)">
                            <rect id="Rectangle-2" fill="#008756" x="100" y="12" width="20.7934094" height="20.7934094" rx="2.39923954"></rect>
                            <rect id="Rectangle-4" fill="#FFFFFF" x="108" y="12" width="2.39923954" height="22.3929024"></rect>
                            <rect id="Rectangle-3" fill="#FFFFFF" x="96" y="8" width="12.7959442" height="26.391635"></rect>
                            <rect id="Rectangle-2-Copy" fill="#008756" x="193" y="12" width="20.7934094" height="20.7934094" rx="2.39923954"></rect>
                            <rect id="Rectangle-2-Copy-2" fill="#008756" x="286" y="12" width="20.7934094" height="20.7934094" rx="2.39923954"></rect>
                            <g id="noun_graphics-card_1037675_000000-copy-2">
                                <path d="M36.3890823,20.7934094 C34.4045667,20.7934094 32.7896071,22.408369 32.7896071,24.3916528 C32.7896071,26.3761684 34.4045667,27.991128 36.3890823,27.991128 C38.3723661,27.991128 39.9873257,26.3761684 39.9873257,24.3916528 C39.9860939,22.4071372 38.3723661,20.7934094 36.3890823,20.7934094 Z" id="Shape"></path>
                                <path d="M34.4171279,30.4214413 C34.1619785,33.7325231 35.6584594,36.6845303 38.514946,38.3878327 C41.2325838,37.8618805 43.6665905,36.5774985 45.5855513,34.7740695 C42.3766025,34.5646093 39.2649665,32.9867528 37.1549403,30.3903676 C36.6992316,30.5031538 36.229282,30.5791119 35.7379711,30.5791119 C35.2822624,30.5802628 34.843168,30.5169644 34.4171279,30.4214413 Z" id="Shape"></path>
                                <path d="M33.6398647,19.1939163 C34.418684,18.839781 35.2823135,18.6221931 36.2056684,18.6221931 C36.6810827,18.6221931 37.1361903,18.6888016 37.5793529,18.7887144 C37.7238884,15.5648612 36.070689,12.8239198 32.8944915,11.2597293 L32.9303267,11.1964512 C29.6239279,11.9224843 26.7666641,13.7175844 24.792142,16.1687786 C28.0185088,15.9234371 31.236514,17.006936 33.6398647,19.1939163 Z" id="Shape"></path>
                                <path d="M38.8400266,20.737956 C39.9102216,21.5547933 40.6987864,22.6826391 40.9979403,23.9923954 C44.3437079,22.9079735 46.6555795,20.4128641 47.1850444,17.1396468 C44.5151894,13.5941504 40.143036,11.2610001 35.1888466,11.1964512 C38.0139111,13.5695044 39.3369476,16.9882502 38.8400266,20.737956 Z" id="Shape"></path>
                                <path d="M30.5641281,24.7642485 C30.7274669,23.5880801 31.2326776,22.5263298 31.9898606,21.6638883 C29.5106561,19.4591878 26.0894046,18.6422675 22.923924,19.5723755 C22.0755751,21.405525 21.5931559,23.4330621 21.5931559,25.5700961 C21.5931559,27.5607242 22.0072008,29.4578493 22.7491894,31.1901141 C24.1787205,28.0577661 26.9871349,25.7214232 30.5641281,24.7642485 Z" id="Shape"></path>
                                <path d="M32.9881806,29.3958684 C32.0130773,28.6375183 31.2879058,27.5972173 30.9271668,26.391635 C27.698984,27.4209981 25.4446732,29.9014352 24.792142,33.1706052 C27.3308579,36.6463769 31.3802451,38.9651784 35.9885932,39.1875792 C33.5545285,36.6573146 32.4378382,33.1098399 32.9881806,29.3958684 Z" id="Shape"></path>
                                <polygon id="Rectangle-path" points="4.79847909 7.99746515 6.39797212 7.99746515 6.39797212 19.9936629 4.79847909 19.9936629"></polygon>
                                <path d="M41.4105426,25.5379728 C41.0953088,26.8536037 40.2865018,27.9854676 39.1875792,28.7919353 C41.4268695,31.1844171 44.7801532,32.3666122 47.9550975,31.8831997 C49.4860537,29.6932127 50.3840304,27.0853607 50.3840304,24.2832074 C50.3840304,22.4865051 50.0060011,20.7729075 49.339112,19.1939163 C47.9525857,22.2840103 45.0865956,24.5957283 41.4105426,25.5379728 Z" id="Shape"></path>
                                <polygon id="Shape" points="55.0889181 39.9873257 51.1837769 44.7858048 71.1774398 44.7858048 67.2711199 39.9873257"></polygon>
                                <polygon id="Rectangle-path" points="4.79847909 26.391635 6.39797212 26.391635 6.39797212 38.3878327 4.79847909 38.3878327"></polygon>
                                <polygon id="Shape" points="66.4725521 6.39797212 70.3776933 1.59949303 50.3840304 1.59949303 54.2891716 6.39797212"></polygon>
                                <path d="M90.9948265,25.5381599 C90.6795927,26.8538296 89.8720416,27.9857269 88.7718631,28.7922184 C91.0136652,31.1847707 94.3694608,32.3658301 97.5406374,31.8835739 C99.0703376,29.6935223 99.9683143,27.0855934 99.9683143,24.2833575 C99.9683143,22.4866021 99.589029,20.7729541 98.9246518,19.1939163 C97.5356137,22.2841014 94.6708795,24.5958875 90.9948265,25.5381599 Z" id="Shape"></path>
                                <path d="M80.1473196,23.1650274 C80.3106385,21.9889088 80.8170537,20.9284337 81.5741445,20.0660287 C79.0927099,17.8601912 75.6706089,17.0420752 72.5093119,17.9733742 C71.6610663,19.8076763 71.1774398,21.8338974 71.1774398,23.9708409 C71.1774398,25.9613848 71.5914342,27.8584296 72.3320665,29.590621 C73.7639556,26.4596358 76.569496,24.1221616 80.1473196,23.1650274 Z" id="Shape"></path>
                                <path d="M80.9696082,28.5896843 C79.9958432,27.8323336 79.2719825,26.7941675 78.9112832,25.5918885 C75.7203869,26.6288389 73.4244681,29.1476681 72.7769328,32.3703594 C75.3153696,35.8471218 79.3655427,38.1665842 83.973384,38.3878327 C81.5371249,35.856847 80.4180953,32.3071455 80.9696082,28.5896843 Z" id="Shape"></path>
                                <path d="M104.579963,1.59949303 L73.4271229,1.59949303 L67.7005678,8.93402289 L53.0599683,8.93402289 L47.3334132,1.59949303 L16.181761,1.59949303 C14.3148708,1.59949303 12.7959442,3.06616948 12.7959442,4.87025036 L12.7959442,39.9155545 C12.7959442,41.7184877 14.3148708,43.1863118 16.181761,43.1863118 L47.7134417,43.1863118 L53.442372,35.8506343 L68.081784,35.8506343 L73.8083391,43.1863118 L104.579963,43.1863118 C106.446853,43.1863118 107.965779,41.7196353 107.965779,39.9155545 L107.965779,4.87025036 C107.964592,3.06731711 106.446853,1.59949303 104.579963,1.59949303 Z M35.8042973,39.1982831 C26.6752991,39.1982831 19.2493039,32.0221268 19.2493039,23.2014107 C19.2493039,14.3795469 26.6752991,7.20224296 35.8042973,7.20224296 C44.9332954,7.20224296 52.3592906,14.3795469 52.3592906,23.2014107 C52.3592906,32.0221268 44.9332954,39.1982831 35.8042973,39.1982831 Z M84.6759678,38.662338 C75.5469697,38.662338 68.1209744,31.485034 68.1209744,22.6631703 C68.1209744,13.8413065 75.5481572,6.66400254 84.6759678,6.66400254 C93.8037783,6.66400254 101.229774,13.8413065 101.229774,22.6631703 C101.229774,31.485034 93.8037783,38.662338 84.6759678,38.662338 Z" id="Shape"></path>
                                <path d="M81.6262185,19.1939163 C82.4037708,18.8397318 83.2673197,18.623224 84.1905884,18.623224 C84.6647639,18.623224 85.1210235,18.6909521 85.5641447,18.7897685 C85.7086667,15.5643573 84.0556216,12.8219252 80.8785261,11.2586278 L80.914358,11.1964512 C77.6082678,11.9225851 74.7524651,13.7179344 72.7769328,16.1694689 C76.0029985,15.9240934 79.2230922,17.0066324 81.6262185,19.1939163 Z" id="Shape"></path>
                                <path d="M84.0013719,28.8196424 C83.7462487,32.1325492 85.2449492,35.0864331 88.1023291,36.7883397 C90.8196879,36.2613125 93.2534446,34.9759645 95.1698352,33.1739457 C91.9612159,32.9645157 88.8498995,31.3868862 86.7400899,28.7908745 C86.2832414,28.9024938 85.8145266,28.978441 85.3232661,28.978441 C84.8664176,28.9795917 84.4273684,28.9163024 84.0013719,28.8196424 Z" id="Shape"></path>
                                <path d="M88.4246915,19.1393382 C89.4937464,19.9562504 90.2811416,21.0841996 90.5815786,22.3929024 C93.9264435,21.3095547 96.2385563,18.8153902 96.7693283,15.5418726 C94.0991947,11.996051 89.726585,9.66151302 84.7731305,9.59695817 C87.5997417,11.9690553 88.9229161,15.3892885 88.4246915,19.1393382 Z" id="Shape"></path>
                                <path d="M84.3744894,20.7934094 C82.389634,20.7934094 80.774398,22.408369 80.774398,24.3916528 C80.774398,26.3761684 82.389634,27.991128 84.3744894,27.991128 C86.3581126,27.991128 87.9721166,26.3761684 87.9721166,24.3916528 C87.9721166,22.408369 86.3581126,20.7934094 84.3744894,20.7934094 Z" id="Shape"></path>
                                <path d="M0,2.33716514 L7.80594847,2.33716514 L7.80594847,5.43507752 L3.25528518,5.43507752 L3.25528518,21.6363062 L7.80594847,21.6363062 L7.80594847,23.9582798 L3.25528518,23.9582798 L3.25528518,40.1583399 L7.80594847,40.1583399 L7.80594847,53.5830165 L10.3967047,53.5830165 L10.3967047,0 L0,0 L0,2.33716514 Z M5.8460414,19.2991411 L5.8460414,7.77224266 L7.80594847,7.77224266 L7.80594847,19.2991411 L5.8460414,19.2991411 Z M5.8460414,37.8211748 L5.8460414,26.2954449 L7.80594847,26.2954449 L7.80594847,37.8211748 L5.8460414,37.8211748 Z" id="Shape" fill="#363636" fill-rule="nonzero"></path>
                                <path d="M104.647359,0 L16.9141108,0 C13.7612063,0 11.1964512,2.55174731 11.1964512,5.68748826 L11.1964512,41.4975561 C11.1964512,44.633297 13.7612063,47.1850444 16.9141108,47.1850444 L104.647359,47.1850444 C107.800264,47.1850444 110.365019,44.633297 110.365019,41.4975561 L110.365019,5.68748826 C110.36384,2.55174731 107.800264,0 104.647359,0 Z M70.7763261,2.34535598 L66.8714392,7.49458505 L54.6888523,7.49458505 L50.7839655,2.34535598 L70.7763261,2.34535598 Z M51.162314,44.8396884 L55.0672008,39.6892866 L67.2486091,39.6892866 L71.153496,44.8396884 L51.162314,44.8396884 Z M108.006529,41.4975561 C108.006529,43.3398332 106.500206,44.8396884 104.646181,44.8396884 L74.1072076,44.8396884 L68.423729,37.3439307 L53.8932596,37.3439307 L48.2074238,44.8396884 L16.9141108,44.8396884 C15.0612638,44.8396884 13.5537629,43.3410059 13.5537629,41.4975561 L13.5537629,5.68748826 C13.5537629,3.84403846 15.0612638,2.34535598 16.9141108,2.34535598 L47.8314325,2.34535598 L53.5149111,9.83994103 L68.0453805,9.83994103 L73.728859,2.34535598 L104.646181,2.34535598 C106.499028,2.34535598 108.006529,3.84403846 108.006529,5.68748826 L108.006529,41.4975561 Z" id="Shape" fill="#363636" fill-rule="nonzero"></path>
                                <path d="M36.7883397,7.99746515 C27.5271718,7.99746515 19.9936629,15.3527809 19.9936629,24.3934448 C19.9936629,33.4341087 27.5271718,40.7870722 36.7883397,40.7870722 C46.0495076,40.7870722 53.5830165,33.4329326 53.5830165,24.3934448 C53.5830165,15.3527809 46.0495076,7.99746515 36.7883397,7.99746515 Z M48.53618,16.316005 C48.0265567,19.5961418 45.8013223,22.0965258 42.580937,23.1832401 C42.2929938,21.870715 41.5351852,20.7393089 40.5038908,19.9219209 C40.9821897,16.1642884 39.708734,12.7383154 36.9895385,10.3602457 C41.7580701,10.424931 45.9663775,12.7630135 48.53618,16.316005 Z M46.7844253,34.4678987 C44.8374957,36.3096679 42.3652808,37.6233691 39.6063274,38.1608458 C36.7064144,36.4213972 35.1871829,33.4035302 35.4462113,30.0198967 C35.8787284,30.1175129 36.3244982,30.1821982 36.7859301,30.1821982 C37.2847103,30.1821982 37.7618044,30.1045758 38.2244412,29.9893182 C40.3677503,32.6425949 43.5266917,34.255025 46.7844253,34.4678987 Z M36.7883397,27.8300026 C34.8474341,27.8300026 33.2679634,26.2881384 33.2679634,24.3934448 C33.2679634,22.4987512 34.8474341,20.9580631 36.7883397,20.9580631 C38.7280405,20.9580631 40.3075112,22.4999273 40.3075112,24.3934448 C40.3063064,26.2881384 38.7280405,27.8300026 36.7883397,27.8300026 Z M33.4848243,10.7377731 L33.4486808,10.8048106 C36.6521992,12.4619325 38.319619,15.365718 38.1738403,18.781106 C37.7268657,18.6752572 37.2678434,18.6046913 36.7883397,18.6046913 C35.8570423,18.6046913 34.9847793,18.8340304 34.2004655,19.2103817 C31.7764419,16.893469 28.5307561,15.7455976 25.2778417,16.0055152 C27.2681434,13.4086912 30.1499846,11.506941 33.4848243,10.7377731 Z M23.6682514,18.6599679 C26.6802092,17.770838 29.9343285,18.5517669 32.2944986,20.6593342 C31.5740383,21.4837788 31.0933298,22.4975751 30.9379128,23.6231007 C27.5344005,24.5381048 24.8621915,26.7726907 23.5019913,29.7670357 C22.7959884,28.11109 22.4020243,26.2975472 22.4020243,24.3946209 C22.4020243,22.3505629 22.8622515,20.4123537 23.6682514,18.6599679 Z M25.1212199,32.5767334 C25.7597549,29.4130303 27.9657128,27.0126146 31.1246542,26.0164598 C31.4764509,27.1819727 32.1860681,28.1898885 33.1414611,28.9237736 C32.6029231,32.5191046 33.6956614,35.9521341 36.0775176,38.4007698 C31.5680144,38.1843678 27.6054827,35.9403731 25.1212199,32.5767334 Z M48.8433997,32.0298479 C45.7977079,32.5155763 42.580937,31.3277175 40.4328086,28.9237736 C41.4869939,28.1134422 42.2628742,26.9761556 42.5652748,25.6542217 C46.091675,24.7062868 48.8397853,22.3846697 50.1710707,19.2797715 C50.8096057,20.8663274 51.1734502,22.5881346 51.1734502,24.3934448 C51.1734502,27.209023 50.3120303,29.8293689 48.8433997,32.0298479 Z" id="Shape" fill="#363636" fill-rule="nonzero" transform="translate(36.788340, 24.392269) rotate(141.000000) translate(-36.788340, -24.392269) "></path>
                                <path d="M84.773733,7.99746515 C75.5122329,7.99746515 67.9784537,15.3522533 67.9784537,24.3922687 C67.9784537,33.4334601 75.5134377,40.7870722 84.773733,40.7870722 C94.0340282,40.7870722 101.567807,33.4322841 101.567807,24.3922687 C101.567807,15.3522533 94.0340282,7.99746515 84.773733,7.99746515 Z M96.5219946,16.3165843 C96.0099434,19.5964858 93.785834,22.0966904 90.566538,23.1809748 C90.2785845,21.8685438 89.5207487,20.7383949 88.4906222,19.9210655 C88.9701431,16.1637026 87.6966417,12.7367994 84.9761438,10.3600762 C89.7436416,10.4247569 93.9521,12.7650237 96.5219946,16.3165843 Z M94.7725868,34.468352 C92.8267922,36.308813 90.3556934,37.6235961 87.5966411,38.1622102 C84.6954192,36.4228863 83.1737236,33.4040598 83.4327612,30.0183171 C83.8652939,30.1171022 84.3110796,30.1817829 84.773733,30.1817829 C85.2725311,30.1817829 85.7496423,30.104166 86.2122956,29.9900927 C88.3556817,32.6420031 91.5147363,34.2543175 94.7725868,34.468352 Z M84.773733,27.82858 C82.8327577,27.82858 81.2532304,26.2868264 81.2532304,24.3922687 C81.2532304,22.498887 82.8327577,20.9571334 84.773733,20.9571334 C86.7135034,20.9571334 88.2918259,22.498887 88.2918259,24.3922687 C88.2918259,26.2880024 86.7135034,27.82858 84.773733,27.82858 Z M81.4700991,10.7387525 L81.4339543,10.8046093 C84.6387924,12.4616122 86.3062721,15.3651894 86.1604881,18.7815085 C85.7134975,18.6768433 85.2532538,18.6051065 84.7749378,18.6051065 C83.843607,18.6051065 82.9725176,18.8344291 82.1881756,19.2095774 C79.7628602,16.8928309 76.5158532,15.7450418 73.2640269,16.0049407 C75.2544,13.408303 78.1351398,11.5078653 81.4700991,10.7387525 Z M71.6543789,18.6592031 C74.6628303,17.7677849 77.9194759,18.5510099 80.2809355,20.659602 C79.5604494,21.4839874 79.0785188,22.497711 78.9230962,23.6219799 C75.518257,24.5369183 72.847157,26.7701679 71.4857032,29.7654742 C70.7808798,28.1096472 70.3869016,26.2962345 70.3869016,24.3934447 C70.3881064,22.3483573 70.8471453,20.4114632 71.6543789,18.6592031 Z M73.1073995,32.5784983 C73.7411381,29.4608867 75.9893441,27.0230108 79.1110491,26.0210473 C79.4640633,27.1841246 80.1725012,28.1884401 81.1255188,28.9210965 C80.5869614,32.5185217 81.6809437,35.9524809 84.0640902,38.4009409 C79.5556301,38.1857305 75.5917514,35.9430728 73.1073995,32.5784983 Z M96.8304302,32.028124 C93.7882437,32.5126416 90.5689477,31.326044 88.4183326,28.9222725 C89.4737605,28.1119992 90.2484639,26.9747942 90.5508753,25.6529551 C94.077402,24.7050883 96.8256109,22.3836377 98.1581488,19.2789622 C98.7955019,20.8654043 99.1593595,22.587088 99.1593595,24.3922687 C99.1581547,27.2088209 98.2979087,29.8278029 96.8304302,32.028124 Z" id="Shape" fill="#363636" fill-rule="nonzero" transform="translate(84.773131, 24.392269) rotate(30.000000) translate(-84.773131, -24.392269) "></path>
                            </g>
                        </g>
                        <g id="Group-5-Copy-2" transform="translate(237.000000, 189.000000)" font-family="Montserrat-Regular, Montserrat" font-weight="normal">
                            <g id="Group-Copy" transform="translate(0.000000, 32.789607)" fill="#363636" font-size="32.4668127">
                                <text id="0.17-VTC">
                                    <tspan x="0" y="31">0.17 VTC</tspan>
                                </text>
                            </g>
                            <text id="Payouts-so-far:" font-size="13.7983954" fill="#979797">
                                <tspan x="0" y="13">Payouts so far:</tspan>
                            </text>
                        </g>
                        <g id="Group-5-Copy-4" transform="translate(60.000000, 189.000000)" font-family="Montserrat-Regular, Montserrat" font-weight="normal">
                            <g id="Group-Copy" transform="translate(0.000000, 32.789607)" fill="#363636" font-size="32.4668127">
                                <text id="2.31-VTC">
                                    <tspan x="0" y="31">2.31 VTC</tspan>
                                </text>
                            </g>
                            <text id="Vertcoin-Per-Day:" font-size="13.7983954" fill="#979797">
                                <tspan x="0" y="13">Vertcoin Per Day:</tspan>
                            </text>
                        </g>
                        <path d="M59,145.19962 L384,145.19962" id="Line" stroke="#D4D4D4" stroke-width="0.799746515" stroke-linecap="square"></path>
                    </g>
                </g>
            </g>
        </g>
    </g>
</svg>
