<?xml version="1.0" encoding="UTF-8"?>
<svg width="181px" height="34px" viewBox="0 0 181 34" version="1.1" xmlns="http://www.w3.org/2000/svg" xmlns:xlink="http://www.w3.org/1999/xlink">
    <title>Vertcoin Logo</title>
    <desc>Vertcoin Logo</desc>
    <defs>
        <circle id="path-1" cx="16.991239" cy="16.991239" r="16.991239"></circle>
    </defs>
    <g id="Page-1" stroke="none" stroke-width="1" fill="none" fill-rule="evenodd">
        <g id="Website-Copy-28" transform="translate(-46.000000, -49.000000)">
            <g id="logo+text" transform="translate(46.000000, 49.000000)">
                <g id="Group-43">
                    <g id="Mask" fill="#FFFFFF">
                        <circle id="path-1" cx="16.991239" cy="16.991239" r="16.991239"></circle>
                    </g>
                    <g id="Combined-Shape-Clipped">
                        <mask id="mask-2" fill="white">
                            <use xlink:href="#path-1"></use>
                        </mask>
                        <g id="path-1"></g>
                        <g id="Combined-Shape" mask="url(#mask-2)" fill="#048657">
                            <path d="M28.6138743,4.59693963 L17.0322844,20.7630356 L12.4235136,14.8208036 L4.92158255,14.8208036 L2.86323556,17.247215 L6.73573627,17.247215 L16.100692,29.4783092 C16.4131967,29.7754208 16.7237275,29.9239766 17.0322844,29.9239766 C17.3408414,29.9239766 17.6350285,29.7754208 17.9148457,29.4783092 L32.2301333,9.46746478 C33.3519913,11.735376 33.982478,14.2896598 33.982478,16.9912014 C33.982478,26.3751828 26.3752412,33.9824027 16.991239,33.9824027 C7.6072368,33.9824027 0,26.3751828 0,16.9912014 C0,7.60721995 7.6072368,0 16.991239,0 C21.4869623,0 25.5748801,1.74601879 28.6138743,4.59693963 Z" id="Path"></path>
                        </g>
                    </g>
                </g>
                <g id="vertcoinLogo" transform="translate(40.634750, 3.166667)" fill="#363636" fill-rule="nonzero">
                    <path d="M0.0372696391,1.01130385 L5.62549917,1.01130385 L11.6410642,17.4522052 L17.6566288,1.01130385 L23.1133702,1.01130385 L13.8106118,24.5221262 L9.34002813,24.5221262 L0.0372696391,1.01130385 Z M36.0483123,14.0172907 C35.8949087,12.8834298 35.5004495,11.9663501 34.8649223,11.2660242 C34.2293951,10.5656984 33.3856901,10.2155407 32.3337831,10.2155407 C31.2818756,10.2155407 30.4326928,10.5601403 29.7862077,11.2493499 C29.1397231,11.9385595 28.7178709,12.8611972 28.5206381,14.0172907 L36.0483123,14.0172907 Z M32.826862,24.755567 C31.5119782,24.755567 30.2902498,24.5332447 29.161641,24.0885933 C28.0330322,23.6439419 27.057841,23.0103233 26.2360383,22.1877183 C25.4142361,21.3651133 24.7732396,20.3924531 24.31303,19.2697085 C23.8528205,18.1469638 23.6227195,16.8964006 23.6227195,15.5179815 L23.6227195,15.4512841 C23.6227195,14.1840277 23.8363848,12.9834871 24.2637224,11.8496262 C24.6910595,10.7157653 25.2882272,9.72643088 26.0552428,8.88159333 C26.8222584,8.03675572 27.7371851,7.36978874 28.8000494,6.88067227 C29.8629143,6.39155575 31.0408135,6.14700122 32.3337831,6.14700122 C33.8020704,6.14700122 35.073106,6.41378799 36.1469282,6.94736964 C37.2207498,7.48095124 38.1137619,8.19794076 38.8259909,9.09835977 C39.5382199,9.99877874 40.0641653,11.0325776 40.4038439,12.1997874 C40.7435224,13.3669971 40.9133589,14.5842119 40.9133589,15.8514683 C40.9133589,16.0515614 40.9078806,16.2627676 40.8969232,16.4850933 C40.8859659,16.707419 40.8695297,16.9408574 40.847615,17.1854157 L28.586382,17.1854157 C28.8274441,18.3415091 29.325997,19.2141243 30.0820553,19.8032874 C30.8381136,20.3924504 31.7749544,20.6870275 32.8926059,20.6870275 C33.7253659,20.6870275 34.4704556,20.542518 35.127898,20.2534946 C35.7853399,19.9644713 36.4646867,19.4975943 37.1659578,18.8528499 L40.0258166,21.4206986 C39.1930565,22.4656292 38.1849939,23.2826638 37.0015986,23.8718269 C35.8182027,24.4609899 34.4266376,24.755567 32.826862,24.755567 Z M44.6278881,6.48048806 L49.6244226,6.48048806 L49.6244226,10.082146 C50.1284615,8.85935476 50.8187656,7.88113642 51.6953549,7.14746175 C52.5719443,6.41378702 53.7553224,6.08030347 55.2455243,6.14700122 L55.2455243,11.449442 L54.9825486,11.449442 C53.3170285,11.449442 52.0076431,11.9607834 51.054352,12.9834815 C50.1010609,14.0061796 49.6244226,15.5957843 49.6244226,17.7523433 L49.6244226,24.3553828 L44.6278881,24.3553828 L44.6278881,6.48048806 Z M65.9783779,24.655521 C65.2113623,24.655521 64.5155798,24.5721501 63.8910099,24.4054058 C63.26644,24.2386615 62.7295373,23.9440845 62.280285,23.5216657 C61.8310327,23.0992469 61.4804023,22.5489991 61.2283829,21.8709058 C60.9763634,21.1928125 60.8503556,20.3313134 60.8503556,19.2863828 L60.8503556,10.815817 L58.7465513,10.815817 L58.7465513,6.48048806 L60.8503556,6.48048806 L60.8503556,1.91171833 L65.8468901,1.91171833 L65.8468901,6.48048806 L69.9887547,6.48048806 L69.9887547,10.815817 L65.8468901,10.815817 L65.8468901,18.4526657 C65.8468901,19.6087591 66.3837934,20.1867973 67.457615,20.1867973 C68.3342049,20.1867973 69.1559947,19.975591 69.9230108,19.5531723 L69.9230108,23.6217117 C69.3970568,23.9329676 68.8163253,24.1830803 68.1807981,24.3720571 C67.5452703,24.5610339 66.811138,24.655521 65.9783779,24.655521 Z M82.1262391,24.755567 C80.8113549,24.755567 79.5896269,24.5110124 78.4610182,24.021896 C77.3324089,23.5327794 76.3626966,22.8713705 75.5518512,22.0376492 C74.7410063,21.2039279 74.1054882,20.2257096 73.6452792,19.102965 C73.1850696,17.9802204 72.9549681,16.7852378 72.9549681,15.5179815 L72.9549681,15.4512841 C72.9549681,14.1840277 73.1850696,12.9834871 73.6452792,11.8496262 C74.1054882,10.7157653 74.7410063,9.72643088 75.5518512,8.88159333 C76.3626966,8.03675572 77.3324089,7.36978874 78.4610182,6.88067227 C79.5896269,6.39155575 80.8332695,6.14700122 82.1919831,6.14700122 C83.8575026,6.14700122 85.2381104,6.41378799 86.3338472,6.94736964 C87.429584,7.48095124 88.3938179,8.21461494 89.2265779,9.1483828 L86.1694874,12.4832512 C85.5997046,11.8829719 85.0134942,11.4049788 84.4108389,11.0492578 C83.8081837,10.6935367 83.0576151,10.5156789 82.1591111,10.5156789 C81.5235839,10.5156789 80.9483308,10.6435142 80.4333341,10.8991887 C79.9183379,11.1548632 79.4690927,11.5050209 79.0855849,11.9496723 C78.7020771,12.3943236 78.4062327,12.911223 78.1980425,13.5003861 C77.9898524,14.0895491 77.8857592,14.7176097 77.8857592,15.3845867 L77.8857592,15.4512841 C77.8857592,16.1404937 77.9898524,16.7852285 78.1980425,17.3855078 C78.4062327,17.9857871 78.7075554,18.5082446 79.1020206,18.952896 C79.4964862,19.3975473 79.9676456,19.747705 80.5155142,20.0033795 C81.0633824,20.259054 81.6769858,20.3868894 82.3563429,20.3868894 C83.1891024,20.3868894 83.9177569,20.2145895 84.5423268,19.8699848 C85.1668967,19.52538 85.7859785,19.0640611 86.3995911,18.4860144 L89.3251938,21.487396 C88.4705191,22.4433963 87.4953279,23.2270826 86.3995911,23.8384782 C85.3038543,24.4498738 83.8794178,24.755567 82.1262391,24.755567 Z M101.178386,20.3035177 C101.901572,20.3035177 102.542568,20.1756823 103.101394,19.9200078 C103.66022,19.6643333 104.136859,19.3141756 104.531324,18.8695242 C104.925789,18.4248729 105.227112,17.9079734 105.435302,17.3188104 C105.643492,16.7296474 105.747585,16.1015868 105.747585,15.4346098 L105.747585,15.3679124 C105.747585,14.7009354 105.638014,14.0728748 105.418866,13.4837117 C105.199719,12.8945487 104.88196,12.3720912 104.46558,11.9163236 C104.0492,11.4605559 103.556125,11.0992821 102.986343,10.8324914 C102.416559,10.5657005 101.791999,10.4323071 101.112642,10.4323071 C100.389456,10.4323071 99.7484594,10.5601425 99.1896334,10.815817 C98.6308079,11.0714915 98.1541696,11.4216492 97.7597045,11.8663006 C97.3652389,12.3109519 97.0639161,12.8278513 96.8557259,13.4170144 C96.6475358,14.0061774 96.5434426,14.634238 96.5434426,15.301215 L96.5434426,15.3679124 C96.5434426,16.0348894 96.6530147,16.66295 96.8721622,17.2521131 C97.0913091,17.8412761 97.4090681,18.3637335 97.8254484,18.8195012 C98.2418282,19.2752688 98.7294238,19.6365426 99.2882493,19.9033335 C99.8470752,20.1701242 100.477114,20.3035177 101.178386,20.3035177 Z M101.146105,24.6985963 C99.7873912,24.6985963 98.5273129,24.4595998 97.3658317,23.9815996 C96.2043509,23.5035994 95.2017667,22.8477485 94.3580493,22.0140272 C93.514332,21.180306 92.8514214,20.2020877 92.3692972,19.079343 C91.887173,17.9565984 91.6461146,16.7504997 91.6461146,15.4610108 L91.6461146,15.3943134 C91.6461146,14.1048245 91.887173,12.8987258 92.3692972,11.7759812 C92.8514214,10.6532365 93.5198109,9.66946018 94.3744856,8.82462263 C95.2291597,7.97978508 96.2372229,7.31281805 97.3987036,6.82370158 C98.5601843,6.33458511 99.83122,6.09003052 101.211849,6.09003052 C102.570562,6.09003052 103.830641,6.32902705 104.992121,6.80702724 C106.153602,7.28502742 107.156187,7.94087833 107.999904,8.7745996 C108.843621,9.60832087 109.506532,10.5865392 109.988656,11.7092838 C110.47078,12.8320285 110.711839,14.0381272 110.711839,15.3276161 L110.711839,15.3943134 C110.711839,16.6838023 110.47078,17.889901 109.988656,19.0126457 C109.506532,20.1353903 108.838143,21.1191667 107.983468,21.9640042 C107.128793,22.8088418 106.120731,23.4758088 104.959249,23.9649253 C103.797769,24.4540417 102.526733,24.6985963 101.146105,24.6985963 Z M114.582258,6.48048806 L119.578792,6.48048806 L119.578792,24.3553828 L114.582258,24.3553828 L114.582258,6.48048806 Z M114.365871,0.010843299 L119.625382,0.010843299 L119.625382,4.51291569 L114.365871,4.51291569 L114.365871,0.010843299 Z M124.194581,6.48048806 L129.191116,6.48048806 L129.191116,9.01498806 C129.476007,8.63703442 129.788287,8.27576057 130.127966,7.93115583 C130.467644,7.58655102 130.845668,7.28085778 131.262047,7.01406701 C131.678428,6.74727618 132.13863,6.53606996 132.642669,6.38044201 C133.146708,6.22481401 133.716483,6.14700122 134.35201,6.14700122 C136.258592,6.14700122 137.732336,6.73615541 138.773285,7.91448148 C139.814236,9.0928075 140.334703,10.7157606 140.334703,12.7833894 L140.334703,24.3553828 L135.338168,24.3553828 L135.338168,14.3841262 C135.338168,13.1835676 135.075195,12.277604 134.549242,11.6662085 C134.023288,11.0548128 133.278198,10.7491196 132.31395,10.7491196 C131.349701,10.7491196 130.588176,11.0548128 130.02935,11.6662085 C129.470524,12.277604 129.191116,13.1835676 129.191116,14.3841262 L129.191116,24.3553828 L124.194581,24.3553828 L124.194581,6.48048806 Z" id="Vertcoin"></path>
                </g>
            </g>
        </g>
    </g>
</svg>
