<?xml version="1.0" encoding="UTF-8"?>
<svg width="118px" height="23px" viewBox="0 0 118 23" version="1.1" xmlns="http://www.w3.org/2000/svg" xmlns:xlink="http://www.w3.org/1999/xlink">
    <!-- Generator: Sketch 52.2 (67145) - http://www.bohemiancoding.com/sketch -->
    <title>logo+text copy 2</title>
    <desc>Created with Sketch.</desc>
    <defs>
        <circle id="path-1" cx="10.9379228" cy="10.9379228" r="10.9379228"></circle>
    </defs>
    <g id="Page-1" stroke="none" stroke-width="1" fill="none" fill-rule="evenodd">
        <g id="Artboard-Copy-18" transform="translate(-32.000000, -1233.000000)">
            <g id="Group-12" transform="translate(0.643739, 24.462081)">
                <g id="logo+text-copy-2" transform="translate(32.186949, 1208.941799)">
                    <g id="Group-43">
                        <g id="Mask" fill="#FFFFFF">
                            <circle id="path-1" cx="10.9379228" cy="10.9379228" r="10.9379228"></circle>
                        </g>
                        <g id="Combined-Shape-Clipped">
                            <mask id="mask-2" fill="white">
                                <use xlink:href="#path-1"></use>
                            </mask>
                            <g id="path-1"></g>
                            <g id="Combined-Shape" mask="url(#mask-2)" fill="#048657">
                                <path d="M18.4198662,2.95922921 L10.9643454,13.3659753 L7.99749994,9.54072895 L3.16821452,9.54072895 L1.84317633,11.1027045 L4.33605598,11.1027045 L10.364643,18.9763366 C10.5658144,19.1675989 10.7657152,19.2632301 10.9643454,19.2632301 C11.1629755,19.2632301 11.3523552,19.1675989 11.5324844,18.9763366 L20.7477931,6.09457609 C21.4699767,7.55451896 21.8758456,9.198811 21.8758456,10.9378986 C21.8758456,16.9787332 16.9787708,21.8757972 10.9379228,21.8757972 C4.89707483,21.8757972 0,16.9787332 0,10.9378986 C0,4.89706399 4.89707483,0 10.9379228,0 C13.8319951,0 16.4635471,1.12398035 18.4198662,2.95922921 Z" id="Path"></path>
                            </g>
                        </g>
                    </g>
                    <g id="vertcoinLogo" transform="translate(26.158172, 2.038507)" fill="#363636" fill-rule="nonzero">
                        <path d="M0.0239919194,0.651015707 L3.62135308,0.651015707 L7.49380673,11.2346647 L11.3662602,0.651015707 L14.8789773,0.651015707 L8.89042912,15.7858484 L6.01254015,15.7858484 L0.0239919194,0.651015707 Z M23.2057037,9.02347637 C23.1069518,8.29356589 22.8530231,7.70320596 22.4439094,7.25237892 C22.0347958,6.80155186 21.49167,6.57614172 20.8145165,6.57614172 C20.1373626,6.57614172 19.5907105,6.79797392 19.1745429,7.241645 C18.7583756,7.68531605 18.4868128,8.27925392 18.3598464,9.02347637 L23.2057037,9.02347637 Z M21.1319305,15.9361234 C20.2854886,15.9361234 19.4990144,15.7930058 18.7724849,15.5067664 C18.0459555,15.220527 17.4181869,14.812642 16.8891604,14.2830991 C16.3601343,13.7535562 15.9474999,13.1274169 15.6512451,12.4046624 C15.3549903,11.6819079 15.2068653,10.8768717 15.2068653,9.98952953 L15.2068653,9.94659383 C15.2068653,9.1308115 15.3444099,8.35797671 15.6195038,7.62806626 C15.8945974,6.89815578 16.2790175,6.26128266 16.7727753,5.7174278 C17.2665332,5.17357291 17.8555072,4.74422027 18.5397144,4.42935693 C19.2239219,4.11449356 19.9821815,3.95706428 20.8145165,3.95706428 C21.7597102,3.95706428 22.5779254,4.12880532 23.2691866,4.47229263 C23.9604474,4.8157799 24.5353141,5.277334 24.9938037,5.85696881 C25.4522932,6.4366036 25.7908648,7.10210023 26.0095291,7.85347866 C26.2281934,8.60485707 26.3375238,9.38842568 26.3375238,10.204208 C26.3375238,10.3330157 26.3339972,10.4689774 26.3269435,10.6120971 C26.3198899,10.7552168 26.3093092,10.9054902 26.2952019,11.0629219 L18.4021683,11.0629219 C18.5573494,11.8071443 18.8782873,12.3688807 19.3649915,12.748148 C19.8516957,13.1274152 20.4547767,13.3170459 21.1742525,13.3170459 C21.7103326,13.3170459 22.1899758,13.2240195 22.6131971,13.0379639 C23.0364181,12.8519083 23.4737401,12.5513614 23.9251757,12.1363143 L25.7661782,13.7893386 C25.2300981,14.4620012 24.5811689,14.9879582 23.8193712,15.3672254 C23.0575731,15.7464926 22.1617685,15.9361234 21.1319305,15.9361234 Z M28.7287111,4.17174276 L31.9451751,4.17174276 L31.9451751,6.49027033 C32.2696445,5.70311197 32.7140202,5.0733947 33.2783149,4.60109971 C33.8426096,4.12880469 34.6043963,3.91412834 35.5636973,3.95706428 L35.5636973,7.37045209 L35.3944096,7.37045209 C34.3222494,7.37045209 33.479347,7.69962245 32.8656763,8.35797309 C32.2520057,9.0163237 31.9451751,10.0396142 31.9451751,11.4278753 L31.9451751,15.6785092 L28.7287111,15.6785092 L28.7287111,4.17174276 Z M42.4728535,15.8717198 C41.9790957,15.8717198 41.5311933,15.8180507 41.1291334,15.710711 C40.7270734,15.6033712 40.3814481,15.4137404 40.092247,15.141813 C39.8030458,14.8698856 39.5773313,14.5156696 39.4150965,14.0791545 C39.2528618,13.6426394 39.1717457,13.0880589 39.1717457,12.4153963 L39.1717457,6.96256298 L37.8174449,6.96256298 L37.8174449,4.17174276 L39.1717457,4.17174276 L39.1717457,1.2306476 L42.3882097,1.2306476 L42.3882097,4.17174276 L45.0544894,4.17174276 L45.0544894,6.96256298 L42.3882097,6.96256298 L42.3882097,11.8787001 C42.3882097,12.6229226 42.7338352,12.9950282 43.4250961,12.9950282 C43.9893911,12.9950282 44.5184093,12.8590665 45.0121675,12.5871391 L45.0121675,15.2062166 C44.6735903,15.4065841 44.2997509,15.5675914 43.8906372,15.6892431 C43.4815232,15.8108949 43.0089336,15.8717198 42.4728535,15.8717198 Z M52.8678612,15.9361234 C52.0214189,15.9361234 51.234945,15.7786941 50.5084156,15.4638307 C49.7818858,15.1489674 49.1576442,14.7231927 48.6356714,14.1864938 C48.1136989,13.6497949 47.7045912,13.0200776 47.4083367,12.2973232 C47.1120819,11.5745687 46.9639565,10.8053118 46.9639565,9.98952953 L46.9639565,9.94659383 C46.9639565,9.1308115 47.1120819,8.35797671 47.4083367,7.62806626 C47.7045912,6.89815578 48.1136989,6.26128266 48.6356714,5.7174278 C49.1576442,5.17357291 49.7818858,4.74422027 50.5084156,4.42935693 C51.234945,4.11449356 52.0355262,3.95706428 52.9101831,3.95706428 C53.982343,3.95706428 54.871094,4.12880532 55.5764625,4.47229263 C56.2818309,4.8157799 56.9025459,5.28806782 57.438626,5.88917059 L55.4706577,8.03595537 C55.1038663,7.64953216 54.7264998,7.3418294 54.3385471,7.11283791 C53.9505944,6.88384639 53.4674242,6.76935235 52.8890221,6.76935235 C52.4799085,6.76935235 52.1095957,6.85164493 51.7780722,7.0162326 C51.4465491,7.18082023 51.1573524,7.40623037 50.9104735,7.69246981 C50.6635946,7.9787092 50.473148,8.3114575 50.3391279,8.69072473 C50.2051078,9.06999192 50.1380989,9.47429902 50.1380989,9.90365814 L50.1380989,9.94659383 C50.1380989,10.3902649 50.2051078,10.8053058 50.3391279,11.191729 C50.473148,11.5781522 50.6671212,11.9144784 50.9210538,12.2007179 C51.1749867,12.4869573 51.4782904,12.7123674 51.8309748,12.8769551 C52.1836588,13.0415427 52.5786593,13.1238353 53.0159879,13.1238353 C53.5520677,13.1238353 54.021131,13.0129192 54.4231909,12.7910837 C54.8252509,12.5692481 55.223778,12.2722792 55.6187844,11.900168 L57.5021089,13.8322743 C56.9519215,14.447689 56.3241529,14.9521784 55.6187844,15.3457576 C54.9134159,15.7393367 53.9964506,15.9361234 52.8678612,15.9361234 Z M65.1324708,13.0701657 C65.598014,13.0701657 66.010648,12.9878731 66.3703861,12.8232854 C66.7301242,12.6586978 67.0369548,12.4332876 67.2908874,12.1470482 C67.54482,11.8608088 67.7387935,11.5280605 67.8728133,11.1487933 C68.0068334,10.7695261 68.0738423,10.365219 68.0738423,9.93585991 L68.0738423,9.89292421 C68.0738423,9.4635651 68.0033068,9.059258 67.862233,8.67999081 C67.7211592,8.30072358 67.5166054,7.96439734 67.2485655,7.67100196 C66.9805256,7.37760654 66.6631143,7.14504052 66.2963229,6.9732969 C65.9295312,6.80155325 65.5274771,6.71568273 65.0901488,6.71568273 C64.6246056,6.71568273 64.2119712,6.79797531 63.8522331,6.96256298 C63.4924954,7.12715061 63.1856648,7.35256075 62.9317322,7.63880019 C62.6777993,7.92503959 62.483826,8.25778788 62.3498059,8.63705511 C62.2157858,9.0163223 62.148777,9.4206294 62.148777,9.84998852 L62.148777,9.89292421 C62.148777,10.3222833 62.2193128,10.7265904 62.3603866,11.1058576 C62.50146,11.4851248 62.7060139,11.821451 62.9740541,12.1148465 C63.242094,12.4082418 63.5559783,12.6408079 63.915716,12.8125515 C64.2754541,12.9842951 64.6810348,13.0701657 65.1324708,13.0701657 Z M65.11169,15.8994491 C64.2370331,15.8994491 63.4258716,15.7455977 62.6781809,15.4378904 C61.9304905,15.130183 61.2850879,14.7079863 60.7419542,14.1712874 C60.1988204,13.6345885 59.772079,13.0048713 59.4617169,12.2821168 C59.1513547,11.5593623 58.9961761,10.7829495 58.9961761,9.95285527 L58.9961761,9.90991957 C58.9961761,9.07982531 59.1513547,8.30341258 59.4617169,7.58065808 C59.772079,6.85790358 60.2023474,6.22460841 60.7525348,5.68075354 C61.3027219,5.13689868 61.9516514,4.70754601 62.6993418,4.39268267 C63.4470322,4.07781934 64.2652474,3.92039002 65.1540119,3.92039002 C66.0286688,3.92039002 66.8398303,4.0742414 67.5875207,4.38194875 C68.3352115,4.6896561 68.980614,5.1118529 69.5237474,5.64855177 C70.0668812,6.18525065 70.4936229,6.81496789 70.8039851,7.53772238 C71.1143472,8.26047688 71.2695259,9.03688962 71.2695259,9.86698388 L71.2695259,9.90991957 C71.2695259,10.7400138 71.1143472,11.5164266 70.8039851,12.2391811 C70.4936229,12.9619356 70.0633546,13.5952307 69.5131671,14.1390856 C68.9629797,14.6829405 68.3140505,15.1122931 67.5663598,15.4271565 C66.8186694,15.7420198 66.0004542,15.8994491 65.11169,15.8994491 Z M73.7610655,4.17174276 L76.9775295,4.17174276 L76.9775295,15.6785092 L73.7610655,15.6785092 L73.7610655,4.17174276 Z M73.6217691,0.00698025419 L77.0075208,0.00698025419 L77.0075208,2.90513973 L73.6217691,2.90513973 L73.6217691,0.00698025419 Z M79.9488923,4.17174276 L83.1653567,4.17174276 L83.1653567,5.80329919 C83.3487523,5.5599957 83.5497792,5.32742965 83.7684435,5.10559414 C83.9871078,4.8837586 84.2304563,4.68697194 84.4984962,4.51522832 C84.7665364,4.34348467 85.0627867,4.20752299 85.3872562,4.10733921 C85.7117256,4.0071554 86.0785118,3.95706428 86.4876255,3.95706428 C87.7149664,3.95706428 88.6636729,4.33632579 89.3337728,5.09486021 C90.003873,5.8533946 90.3389179,6.89815275 90.3389179,8.229166 L90.3389179,15.6785092 L87.1224539,15.6785092 L87.1224539,9.2596227 C87.1224539,8.48677631 86.953168,7.90357226 86.6145912,7.5099931 C86.2760141,7.1164139 85.7963709,6.91962728 85.1756466,6.91962728 C84.5549223,6.91962728 84.0646987,7.1164139 83.7049606,7.5099931 C83.3452229,7.90357226 83.1653567,8.48677631 83.1653567,9.2596227 L83.1653567,15.6785092 L79.9488923,15.6785092 L79.9488923,4.17174276 Z" id="Vertcoin"></path>
                    </g>
                </g>
            </g>
        </g>
    </g>
</svg>